<?xml version="1.0" encoding="UTF-8"?>
<!DOCTYPE svg PUBLIC "-//W3C//DTD SVG 1.0//EN" "http://www.w3.org/TR/2001/REC-SVG-20010904/DTD/svg10.dtd">
<!-- Creator: CorelDRAW 2021.5 -->
<svg xmlns="http://www.w3.org/2000/svg" xml:space="preserve" width="79.537mm" height="22.6401mm" version="1.0" style="shape-rendering:geometricPrecision; text-rendering:geometricPrecision; image-rendering:optimizeQuality; fill-rule:evenodd; clip-rule:evenodd"
viewBox="0 0 1784.33 507.91"
 xmlns:xlink="http://www.w3.org/1999/xlink"
 xmlns:xodm="http://www.corel.com/coreldraw/odm/2003">
 <defs>
  <style type="text/css">
   <![CDATA[
    .fil0 {fill:#C6A263;fill-rule:nonzero}
    .fil1 {fill:white;fill-rule:nonzero}
   ]]>
  </style>
 </defs>
 <g id="Layer_x0020_1">
  <metadata id="CorelCorpID_0Corel-Layer"/>
  <g id="GOAT2.0">
   <path class="fil0" d="M246.52 197.04l-40.72 0c1.61,4.87 5,6.63 9.07,7.35 14.67,2.58 28.6,7.12 41.43,14.83 4.02,2.42 8.28,4.45 12.43,6.65 0.31,-0.47 0.63,-0.95 0.95,-1.42 -3.68,-2.99 -6.95,-6.9 -11.14,-8.79 -8.1,-3.65 -10.2,-10.46 -12.02,-18.63zm-17.77 259.56c3.01,-7.39 6.46,-14.37 8.74,-21.71 9.53,-30.55 3.03,-58.33 -17.06,-82.47 -12.07,-14.5 -26.27,-27.2 -39.17,-41.03 -8.13,-8.72 -15.78,-17.91 -23.34,-27.13 -2.1,-2.57 -3.13,-6.02 -5.86,-8.86 0.4,6.76 0.8,13.52 1.2,20.28 -0.55,0.15 -1.1,0.31 -1.66,0.46 -1.14,-1.4 -2.4,-2.71 -3.38,-4.21 -2.62,-4 -4.84,-8.29 -7.73,-12.07 -9.93,-13.01 -18,-26.84 -20.15,-43.41 -1.94,-14.92 1.35,-28.64 9.84,-41.09 0.39,-0.57 0.79,-1.14 1.09,-1.76 0.12,-0.25 -0.03,-0.63 -0.1,-1.49 -8.26,4.35 -14.84,10.29 -20.33,17.44 -20.38,26.5 -19.98,55.99 1.87,81.32 6.47,7.49 15,13.17 22.3,19.98 20.71,19.33 46.88,31.73 66.22,52.86 27.58,30.13 30.41,66.16 7.3,99.97 -2.11,3.08 -4.35,6.08 -7.12,8.87 7.23,-21.66 7.95,-42.75 -3.34,-63.13 -7.81,-14.1 -19.14,-24.74 -33.73,-33.44 4.26,9.01 8.57,16.87 11.8,25.16 9.38,24.06 11.97,48.46 2.14,73.16 -5.12,12.85 -16.52,28.36 -25.03,33.63 0.27,-5.03 0.84,-9.8 0.73,-14.55 -0.33,-14.8 -5.93,-27.69 -14.87,-39.26 -12.37,-16.01 -28.25,-28.1 -44.35,-39.99 -21.08,-15.58 -42.52,-30.71 -63.03,-47.01 -27.63,-21.97 -43.73,-68.87 -20.79,-112.93 0.29,-0.55 0.79,-0.99 1.67,-2.07 0,6.58 -0.37,12.42 0.11,18.19 0.46,5.61 1.78,11.14 3.48,16.83 4.37,-36.57 21.33,-65.12 52.47,-85 -0.71,1.03 -1.38,2.08 -2.13,3.09 -17.95,24.39 -28.69,51.17 -26.03,82 2.1,24.32 12.11,44.69 31.97,59.64 0.68,0.51 1.26,1.14 1.89,1.72 -0.09,0.54 -0.18,1.09 -0.27,1.63 -7.82,-1.04 -15.64,-2.08 -24.72,-3.28 2.04,1.7 3.27,2.95 4.69,3.88 17.97,11.84 36.23,23.27 53.88,35.57 11.63,8.11 23.19,16.63 33.3,26.5 6.89,6.72 11.21,16.07 16.68,24.25 0.45,0.68 0.88,1.37 1.32,2.05 0.44,-0.09 0.89,-0.17 1.33,-0.26 -0.62,-5.15 -0.87,-10.38 -1.93,-15.43 -3.76,-17.84 -12.76,-32.97 -25.24,-45.99 -11.54,-12.04 -23.59,-23.58 -35.25,-35.49 -13.35,-13.63 -25.59,-28.25 -30.82,-47.01 -9.94,-35.68 -0.67,-66.49 25.16,-92.63 17.57,-17.78 38.92,-28.17 63.38,-32.5 1.98,-0.35 3.93,-0.82 6.7,-1.41 -13.57,-5.52 -49.66,-4.75 -73.6,1.86 -24.36,6.72 -44.5,20.58 -62.33,38.17 14.82,-29.91 40.54,-47.06 70.39,-59.4 -0.1,-0.49 -0.2,-0.99 -0.29,-1.49 -5.65,0.67 -11.37,1 -16.92,2.12 -5.69,1.15 -11.23,3.07 -18.33,5.08 7.93,-7.56 15.75,-12.5 24.49,-16.04 22.46,-9.1 45.43,-8.43 68.68,-3.79 11.57,2.31 23.2,4.43 34.87,6.18 11.5,1.73 22.86,1.09 33.85,-4.67 0.63,1.4 1.01,2.7 1.73,3.76 3.65,5.38 6.69,11.41 11.25,15.89 8.79,8.63 18.47,16.33 27.71,24.5 1.36,1.21 3.36,2.95 3.28,4.33 -0.56,9.11 5.9,13.68 11.6,18.67 16.48,14.4 33.11,28.63 49.58,43.02 1.69,1.48 2.76,3.67 5.08,6.84l-36.07 0c0.74,5.96 6.09,10.82 12.98,12.33 2.71,0.59 5.5,0.81 8.23,1.32 6.37,1.18 9.12,5.36 7.8,11.71 -2.72,13.06 -12.03,20.72 -25.22,20.72 -10.08,0 -20.16,0.02 -30.24,-0.02 -1.73,-0.01 -3.64,0.21 -5.15,-0.43 -12.92,-5.51 -23.32,-14.25 -31.62,-25.49 -2.49,-3.37 -0.34,-6.28 2.47,-7.83 3.75,-2.07 7.91,-3.43 11.98,-4.86 3.17,-1.11 6.16,-2.18 6.74,-6.83 -2.26,-0.13 -4.25,-0.23 -6.24,-0.35 -12.46,-0.74 -25.2,-0.11 -37.33,-2.55 -19.26,-3.88 -31.76,-17.41 -39.55,-34.7 -5.29,-11.74 -1.62,-22.59 8.83,-30.45 5.06,-3.81 10.89,-6.6 16.41,-11.04 -6.14,0.62 -12.32,0.99 -18.41,1.95 -3.38,0.54 -6.71,1.83 -9.89,3.19 -23.22,9.91 -31.37,37.85 -16.69,58.81 5.34,7.62 12.11,14.28 18.47,21.16 6.95,7.52 14.52,14.49 21.18,22.26 6.14,7.16 11.44,15.04 17.3,22.85 0.4,-4.35 0.85,-9.15 1.42,-15.3 22.92,28.28 44.08,56.1 44.76,93.9 7.32,-4.17 9.25,-14.38 7.54,-39.42 0.43,-0.3 0.85,-0.59 1.28,-0.89 2.54,3.89 5.77,7.5 7.5,11.73 6.62,16.25 4.54,32.55 -1.85,48.22 -8.57,21.04 -23.43,37.56 -39.97,52.69 -0.3,0.28 -0.86,0.27 -1.52,0.46z"/>
   <path class="fil0" d="M121.96 49.62c10.18,-17.45 19.85,-34.03 28.95,-49.62 8.98,15.42 18.74,32.18 28.62,49.15 -12.2,12.58 -14.39,23.98 -6.39,35.69 7.43,10.86 21.2,14.94 33.19,9.83 12.51,-5.34 18.06,-17.48 14.9,-33.46 13.38,-7.78 26.93,-15.65 40.48,-23.53 0.22,0.23 0.44,0.46 0.65,0.68 -4.99,9.41 -10.33,18.66 -14.88,28.28 -5.19,10.97 -9.98,22.16 -14.42,33.46 -6.74,17.17 -21.03,26.5 -39.26,23.85 -13.03,-1.89 -25.96,-4.72 -38.76,-7.82 -21.02,-5.08 -42.05,-7.86 -63.36,-2.32 -5.33,1.39 -10.42,3.68 -16.3,5.8 -8.48,-28.31 -21.52,-54.97 -36.72,-82.33 2.7,1.36 4.03,1.94 5.28,2.67 11.12,6.44 22.2,12.94 33.36,19.31 2.41,1.37 3.35,2.58 2.6,5.7 -2.92,12.19 4.38,25.32 16.18,29.92 12.48,4.86 26.18,0.3 33.2,-11.06 6.91,-11.18 4.88,-23.94 -5.27,-32.83 -0.89,-0.78 -1.99,-1.33 -2.05,-1.37z"/>
   <path class="fil0" d="M295.34 359.99c-3.67,-24.91 -20.5,-31.69 -41.64,-33.37 4,-8.11 10.77,-11.54 18.48,-12.21 10.17,-0.89 20.45,-0.79 30.68,-0.62 5.44,0.09 8.67,4.51 8.23,10.56 -0.94,13.1 -6.62,24.19 -15.75,35.64z"/>
   <path class="fil1" d="M402.99 100.11c0,-8.08 0.13,-9.25 0.5,-10.43 0.88,-2.68 2.89,-4.19 6.12,-4.19 3.73,0 5.99,2.01 6.36,6.36 0.04,0.29 -0.08,0.46 -0.33,0.5l-2.39 0.46c-0.25,0.04 -0.46,-0.08 -0.46,-0.33 -0.21,-2.56 -1.17,-3.81 -3.14,-3.81 -1.51,0 -2.43,0.63 -2.85,1.97 -0.25,0.8 -0.38,1.59 -0.38,9.46 0,7.87 0.13,8.67 0.38,9.46 0.42,1.34 1.34,1.97 2.85,1.97 1.97,0 2.93,-1.25 3.14,-3.81 0,-0.25 0.21,-0.38 0.46,-0.33l2.39 0.46c0.25,0.04 0.38,0.21 0.33,0.5 -0.37,4.35 -2.64,6.36 -6.36,6.36 -3.23,0 -5.24,-1.51 -6.12,-4.19 -0.38,-1.17 -0.5,-2.35 -0.5,-10.43z"/>
   <path class="fil1" d="M437.12 109.53c0.25,-0.84 0.33,-1.47 0.33,-9.42 0,-7.96 -0.09,-8.59 -0.33,-9.42 -0.42,-1.3 -1.51,-2.01 -3.02,-2.01 -1.51,0 -2.56,0.71 -2.97,2.01 -0.29,0.84 -0.38,1.46 -0.38,9.42 0,7.96 0.09,8.58 0.38,9.42 0.42,1.3 1.47,2.01 2.97,2.01 1.51,0 2.6,-0.71 3.02,-2.01zm-9.26 0.96c-0.42,-1.26 -0.54,-2.3 -0.54,-10.38 0,-8.08 0.13,-9.13 0.54,-10.38 0.88,-2.72 3.02,-4.23 6.24,-4.23 3.22,0 5.4,1.51 6.24,4.23 0.42,1.26 0.54,2.3 0.54,10.38 0,8.08 -0.13,9.13 -0.54,10.38 -0.84,2.72 -3.02,4.23 -6.24,4.23 -3.23,0 -5.36,-1.51 -6.24,-4.23z"/>
   <path class="fil1" d="M457.47 111.2l2.34 0c1.93,0 3.02,-0.75 3.6,-2.43 0.38,-1.17 0.55,-2.72 0.55,-8.67 0,-5.95 -0.17,-7.5 -0.55,-8.67 -0.59,-1.67 -1.67,-2.43 -3.6,-2.43l-2.34 0c-0.17,0 -0.25,0.09 -0.25,0.25l0 21.69c0,0.17 0.08,0.25 0.25,0.25zm-3.64 -24.92c0,-0.25 0.17,-0.42 0.42,-0.42l5.91 0c3.6,0 5.65,1.51 6.57,4.44 0.5,1.55 0.67,3.43 0.67,9.8 0,6.36 -0.17,8.25 -0.67,9.8 -0.92,2.93 -2.97,4.44 -6.57,4.44l-5.91 0c-0.25,0 -0.42,-0.17 -0.42,-0.42l0 -27.64z"/>
   <path class="fil1" d="M480.33 86.29c0,-0.25 0.17,-0.42 0.42,-0.42l10.76 0c0.25,0 0.42,0.17 0.42,0.42l0 2.3c0,0.25 -0.17,0.42 -0.42,0.42l-7.54 0c-0.17,0 -0.25,0.09 -0.25,0.25l0 8.88c0,0.17 0.08,0.25 0.25,0.25l6.53 0c0.25,0 0.42,0.17 0.42,0.42l0 2.3c0,0.25 -0.17,0.42 -0.42,0.42l-6.53 0c-0.17,0 -0.25,0.09 -0.25,0.25l0 9.17c0,0.17 0.08,0.25 0.25,0.25l7.54 0c0.25,0 0.42,0.17 0.42,0.42l0 2.3c0,0.25 -0.17,0.42 -0.42,0.42l-10.76 0c-0.25,0 -0.42,-0.17 -0.42,-0.42l0 -27.64z"/>
   <path class="fil1" d="M504.07 86.29c0,-0.25 0.17,-0.42 0.42,-0.42l3.14 0c0.34,0 0.55,0.12 0.63,0.42l6.37 21.35 0.17 0 0 -21.35c0,-0.25 0.17,-0.42 0.42,-0.42l2.22 0c0.25,0 0.42,0.17 0.42,0.42l0 27.64c0,0.25 -0.17,0.42 -0.42,0.42l-2.97 0c-0.33,0 -0.55,-0.13 -0.63,-0.42l-6.49 -21.35 -0.21 0 0 21.35c0,0.25 -0.17,0.42 -0.42,0.42l-2.22 0c-0.25,0 -0.42,-0.17 -0.42,-0.42l0 -27.64z"/>
   <path class="fil1" d="M539.79 104.76l-2.43 -12.39 -0.13 0 -2.6 12.39 5.15 0zm-4.23 -18.47c0.08,-0.25 0.21,-0.42 0.46,-0.42l2.51 0c0.25,0 0.42,0.17 0.46,0.42l5.99 27.64c0.04,0.25 -0.13,0.42 -0.38,0.42l-2.51 0c-0.29,0 -0.42,-0.17 -0.46,-0.42l-1.26 -6.24 -6.32 0 -1.26 6.24c-0.04,0.25 -0.17,0.42 -0.42,0.42l-2.51 0c-0.25,0 -0.42,-0.17 -0.37,-0.42l6.07 -27.64z"/>
   <path class="fil1" d="M556.62 86.29c0,-0.25 0.17,-0.42 0.42,-0.42l2.6 0c0.34,0 0.5,0.12 0.59,0.42l5.19 17.42 0.17 0 5.07 -17.42c0.08,-0.29 0.29,-0.42 0.63,-0.42l2.55 0c0.25,0 0.42,0.17 0.42,0.42l0 27.64c0,0.25 -0.17,0.42 -0.42,0.42l-2.26 0c-0.25,0 -0.42,-0.17 -0.42,-0.42l0 -19.72 -0.21 0 -4.31 14.66c-0.09,0.25 -0.25,0.42 -0.5,0.42l-1.38 0c-0.29,0 -0.42,-0.17 -0.5,-0.42l-4.31 -14.66 -0.21 0 0 19.72c0,0.25 -0.17,0.42 -0.42,0.42l-2.26 0c-0.25,0 -0.42,-0.17 -0.42,-0.42l0 -27.64z"/>
   <path class="fil1" d="M587.65 86.29c0,-0.25 0.17,-0.42 0.42,-0.42l10.76 0c0.25,0 0.42,0.17 0.42,0.42l0 2.3c0,0.25 -0.17,0.42 -0.42,0.42l-7.54 0c-0.17,0 -0.25,0.09 -0.25,0.25l0 8.88c0,0.17 0.09,0.25 0.25,0.25l6.53 0c0.25,0 0.42,0.17 0.42,0.42l0 2.3c0,0.25 -0.17,0.42 -0.42,0.42l-6.53 0c-0.17,0 -0.25,0.09 -0.25,0.25l0 9.17c0,0.17 0.09,0.25 0.25,0.25l7.54 0c0.25,0 0.42,0.17 0.42,0.42l0 2.3c0,0.25 -0.17,0.42 -0.42,0.42l-10.76 0c-0.25,0 -0.42,-0.17 -0.42,-0.42l0 -27.64z"/>
   <path class="fil1" d="M513.43 253.86l69.96 0c-0.46,9.84 -2.37,18.85 -5.69,26.8 -3.45,8.24 -9.4,15.94 -17.65,22.85 -7.82,6.29 -16.74,11.46 -26.52,15.37 -9.74,3.9 -19.92,5.88 -30.26,5.88 -23.92,0 -44.69,-8.73 -61.73,-25.95 -17.05,-17.22 -25.7,-37.91 -25.7,-61.48 0,-23.06 8.78,-43.61 26.09,-61.1 17.31,-17.48 37.95,-26.34 61.35,-26.34 15.61,0 29.92,3.74 42.55,11.11 12.65,7.39 23.38,17.51 31.88,30.09l0.74 1.1 12.13 -9.33 -0.72 -0.98c-10.26,-14.08 -22.73,-25.41 -37.07,-33.67 -14.39,-8.28 -30.78,-12.48 -48.72,-12.48 -28.21,0 -52.72,10.07 -72.83,29.92 -20.12,19.86 -30.32,44.23 -30.32,72.45 0,27.19 10.16,51 30.19,70.77 20.02,19.77 44.05,29.79 71.4,29.79l4.44 0 0.03 -0c13.06,-0.7 25.98,-3.78 38.42,-9.18 12.46,-5.4 23.29,-13 32.19,-22.6 8.22,-8.92 13.81,-18.65 16.62,-28.91 2.78,-10.18 4.2,-21.07 4.2,-32.35l0 -6.17 -84.95 0 0 14.42z"/>
   <path class="fil1" d="M623.94 318.63c-2.29,-2.29 -5.09,-3.54 -8.33,-3.73l-0.07 -0c-3.27,0 -6.1,1.2 -8.41,3.56 -2.3,2.36 -3.47,5.24 -3.47,8.57 0,3.28 1.18,6.07 3.5,8.29 2.31,2.21 5.13,3.33 8.38,3.33 3.26,0 6.08,-1.12 8.38,-3.33 2.32,-2.22 3.5,-5.01 3.5,-8.29 0,-3.27 -1.17,-6.1 -3.48,-8.4z"/>
   <path class="fil1" d="M766.45 324.75c-23.92,0 -44.73,-8.73 -61.87,-25.95 -17.14,-17.22 -25.83,-37.9 -25.83,-61.48 0,-23.75 8.69,-44.47 25.82,-61.61 16.84,-16.84 37.23,-25.6 60.62,-26.07l0 0.24 1.25 0c23.74,0 44.52,8.69 61.74,25.83 17.22,17.14 25.95,37.87 25.95,61.61 0,23.57 -8.73,44.26 -25.95,61.48 -17.22,17.22 -37.99,25.95 -61.74,25.95zm72.18 -159.11c-20.2,-19.85 -44.48,-30 -72.17,-30.18l-1.25 -0.01 0 0.27c-27.35,0.3 -51.25,10.36 -71.07,29.91 -20.12,19.86 -30.32,43.97 -30.32,71.67 0,27.71 10.25,51.78 30.45,71.55 20.2,19.76 44.48,29.79 72.18,29.79 27.69,0 51.98,-10.02 72.18,-29.79 20.21,-19.77 30.45,-43.84 30.45,-71.55 0,-27.7 -10.25,-51.82 -30.45,-71.68z"/>
   <path class="fil1" d="M882.72 318.63c-2.29,-2.29 -5.09,-3.54 -8.33,-3.73l-0.07 -0c-3.27,0 -6.1,1.2 -8.41,3.56 -2.3,2.36 -3.47,5.24 -3.47,8.57 0,3.28 1.18,6.07 3.5,8.29 2.31,2.21 5.13,3.33 8.38,3.33 3.26,0 6.08,-1.12 8.38,-3.33 2.32,-2.22 3.5,-5.01 3.5,-8.29 0,-3.27 -1.17,-6.1 -3.48,-8.4z"/>
   <path class="fil1" d="M1049.57 257.59l-72.79 0 36.52 -89.82 36.27 89.82zm-120.06 78.46l15.39 0 26.19 -64.3 84.15 0 26.19 64.3 15.39 0 -83.53 -206.56 -83.79 206.56z"/>
   <path class="fil1" d="M1137.08 318.63c-2.28,-2.29 -5.09,-3.54 -8.33,-3.73l-0.07 -0c-3.27,0 -6.1,1.2 -8.41,3.56 -2.3,2.36 -3.47,5.24 -3.47,8.57 0,3.28 1.18,6.07 3.5,8.29 2.31,2.21 5.13,3.33 8.38,3.33 3.25,0 6.07,-1.12 8.38,-3.33 2.32,-2.22 3.5,-5.01 3.5,-8.29 0,-3.27 -1.17,-6.1 -3.48,-8.4z"/>
   <path class="fil1" d="M1164 138.05l0 14.16 50.56 0 0 183.84 14.94 0 0 -183.84 50.56 0 0 -14.16 -116.06 0z"/>
   <path class="fil1" d="M1273.73 318.63c-2.29,-2.29 -5.09,-3.54 -8.33,-3.73l-0.07 -0c-3.27,0 -6.1,1.2 -8.41,3.56 -2.3,2.36 -3.47,5.24 -3.47,8.57 0,3.28 1.18,6.07 3.5,8.29 2.31,2.21 5.13,3.33 8.38,3.33 3.26,0 6.08,-1.12 8.38,-3.33 2.32,-2.22 3.5,-5.01 3.5,-8.29 0,-3.27 -1.17,-6.1 -3.48,-8.4z"/>
   <path class="fil1" d="M404.81 392.88c0,-13.7 0.21,-15.47 0.92,-17.6 1.49,-4.61 5.11,-7.17 10.57,-7.17 6.67,0 10.43,3.76 11.21,10.5 0.07,0.43 -0.07,0.78 -0.5,0.85l-3.98 0.78c-0.5,0.07 -0.78,-0.14 -0.85,-0.57 -0.5,-3.98 -2.34,-6.17 -5.82,-6.17 -2.56,0 -4.4,1.21 -5.11,3.41 -0.5,1.42 -0.64,2.48 -0.64,15.97 0,13.49 0.14,14.55 0.64,15.97 0.71,2.2 2.63,3.41 5.18,3.41 2.56,0 4.47,-1.21 5.18,-3.41 0.42,-1.35 0.64,-2.48 0.64,-12.35 0,-0.28 -0.14,-0.43 -0.43,-0.43l-4.75 0c-0.43,0 -0.71,-0.28 -0.71,-0.71l0 -3.76c0,-0.43 0.28,-0.71 0.71,-0.71l10.01 0c0.43,0 0.71,0.28 0.71,0.71l0 2.06c0,12.92 -0.21,14.69 -0.92,16.82 -1.42,4.61 -5.11,7.17 -10.57,7.17 -5.46,0 -9.08,-2.55 -10.57,-7.17 -0.71,-2.13 -0.92,-3.9 -0.92,-17.6z"/>
   <path class="fil1" d="M471.52 382.66c0,-6.53 -2.13,-8.59 -7.24,-8.59l-3.05 0c-0.28,0 -0.43,0.14 -0.43,0.43l0 16.32c0,0.28 0.14,0.43 0.43,0.43l3.05 0c4.97,0 7.24,-1.99 7.24,-8.59zm1.42 34.35c-0.42,0 -0.64,-0.14 -0.78,-0.5l-6.03 -20.15c-0.64,0.07 -1.35,0.07 -1.99,0.07l-2.91 0c-0.28,0 -0.43,0.14 -0.43,0.43l0 19.45c0,0.42 -0.28,0.71 -0.71,0.71l-4.33 0c-0.43,0 -0.71,-0.28 -0.71,-0.71l0 -46.84c0,-0.42 0.28,-0.71 0.71,-0.71l8.45 0c8.51,0 13.06,3.69 13.06,13.91 0,6.46 -2.13,10.36 -5.89,12.28l6.74 21.36c0.14,0.35 0,0.71 -0.36,0.71l-4.83 0z"/>
   <path class="fil1" d="M504.8 369.46c0,-0.42 0.28,-0.71 0.71,-0.71l18.24 0c0.42,0 0.71,0.28 0.71,0.71l0 3.9c0,0.43 -0.28,0.71 -0.71,0.71l-12.77 0c-0.28,0 -0.43,0.14 -0.43,0.43l0 15.04c0,0.28 0.14,0.42 0.43,0.42l11.07 0c0.42,0 0.71,0.28 0.71,0.71l0 3.9c0,0.42 -0.28,0.71 -0.71,0.71l-11.07 0c-0.28,0 -0.43,0.14 -0.43,0.43l0 15.54c0,0.28 0.14,0.43 0.43,0.43l12.77 0c0.42,0 0.71,0.28 0.71,0.71l0 3.91c0,0.42 -0.28,0.71 -0.71,0.71l-18.24 0c-0.43,0 -0.71,-0.28 -0.71,-0.71l0 -46.84z"/>
   <path class="fil1" d="M565.19 400.76l-4.12 -21.01 -0.21 0 -4.4 21.01 8.73 0zm-7.17 -31.3c0.14,-0.42 0.35,-0.71 0.78,-0.71l4.26 0c0.43,0 0.71,0.28 0.78,0.71l10.15 46.84c0.07,0.42 -0.21,0.71 -0.64,0.71l-4.26 0c-0.5,0 -0.71,-0.28 -0.78,-0.71l-2.13 -10.58 -10.72 0 -2.13 10.58c-0.07,0.42 -0.28,0.71 -0.71,0.71l-4.26 0c-0.43,0 -0.71,-0.28 -0.64,-0.71l10.29 -46.84z"/>
   <path class="fil1" d="M602.66 417.01c-0.42,0 -0.71,-0.28 -0.71,-0.71l0 -41.8c0,-0.28 -0.14,-0.43 -0.43,-0.43l-7.95 0c-0.42,0 -0.71,-0.28 -0.71,-0.71l0 -3.9c0,-0.42 0.28,-0.71 0.71,-0.71l22.5 0c0.43,0 0.71,0.28 0.71,0.71l0 3.9c0,0.43 -0.28,0.71 -0.71,0.71l-7.95 0c-0.28,0 -0.43,0.14 -0.43,0.43l0 41.8c0,0.43 -0.28,0.71 -0.71,0.71l-4.33 0z"/>
   <path class="fil1" d="M642.05 369.46c0,-0.42 0.28,-0.71 0.71,-0.71l18.24 0c0.42,0 0.71,0.28 0.71,0.71l0 3.9c0,0.43 -0.28,0.71 -0.71,0.71l-12.77 0c-0.28,0 -0.43,0.14 -0.43,0.43l0 15.04c0,0.28 0.14,0.42 0.43,0.42l11.07 0c0.42,0 0.71,0.28 0.71,0.71l0 3.9c0,0.42 -0.28,0.71 -0.71,0.71l-11.07 0c-0.28,0 -0.43,0.14 -0.43,0.43l0 15.54c0,0.28 0.14,0.43 0.43,0.43l12.77 0c0.42,0 0.71,0.28 0.71,0.71l0 3.91c0,0.42 -0.28,0.71 -0.71,0.71l-18.24 0c-0.43,0 -0.71,-0.28 -0.71,-0.71l0 -46.84z"/>
   <path class="fil1" d="M697.62 417.65c-7.31,0 -11,-4.11 -11.36,-12.42 0,-0.42 0.14,-0.71 0.57,-0.78l4.19 -0.78c0.5,-0.07 0.78,0.21 0.78,0.64 0.28,5.96 2.2,8.09 5.89,8.09 3.69,0 5.39,-1.77 5.39,-8.3 0,-5.53 -1.06,-7.59 -4.9,-9.08l-2.91 -1.14c-6.6,-2.55 -8.45,-5.82 -8.45,-13.27 0,-8.23 3.55,-12.49 10.79,-12.49 7.24,0 10.57,3.98 10.93,11.5 0,0.43 -0.21,0.71 -0.64,0.78l-3.97 0.64c-0.43,0.14 -0.78,-0.14 -0.78,-0.57 -0.14,-4.76 -1.7,-7.1 -5.39,-7.1 -3.55,0 -5.25,2.13 -5.25,7.03 0,4.97 1.14,6.67 5.04,8.16l2.91 1.14c6.17,2.48 8.37,5.68 8.37,13.7 0,9.72 -3.05,14.26 -11.21,14.26z"/>
   <path class="fil1" d="M741.47 417.01c-0.43,0 -0.71,-0.28 -0.71,-0.71l0 -41.8c0,-0.28 -0.14,-0.43 -0.43,-0.43l-7.95 0c-0.42,0 -0.71,-0.28 -0.71,-0.71l0 -3.9c0,-0.42 0.28,-0.71 0.71,-0.71l22.5 0c0.43,0 0.71,0.28 0.71,0.71l0 3.9c0,0.43 -0.28,0.71 -0.71,0.71l-7.95 0c-0.28,0 -0.43,0.14 -0.43,0.43l0 41.8c0,0.43 -0.28,0.71 -0.71,0.71l-4.33 0z"/>
   <path class="fil1" d="M829.33 408.85c0.43,-1.42 0.57,-2.48 0.57,-15.97 0,-13.49 -0.14,-14.55 -0.57,-15.97 -0.71,-2.2 -2.56,-3.41 -5.11,-3.41 -2.56,0 -4.33,1.2 -5.04,3.41 -0.5,1.42 -0.64,2.48 -0.64,15.97 0,13.48 0.14,14.55 0.64,15.97 0.71,2.2 2.48,3.41 5.04,3.41 2.55,0 4.4,-1.21 5.11,-3.41zm-15.68 1.63c-0.71,-2.13 -0.92,-3.9 -0.92,-17.6 0,-13.7 0.21,-15.47 0.92,-17.6 1.49,-4.61 5.11,-7.17 10.58,-7.17 5.46,0 9.15,2.55 10.57,7.17 0.71,2.13 0.92,3.9 0.92,17.6 0,13.7 -0.21,15.47 -0.92,17.6 -1.42,4.61 -5.11,7.17 -10.57,7.17 -5.46,0 -9.09,-2.56 -10.58,-7.17z"/>
   <path class="fil1" d="M863.32 369.46c0,-0.42 0.28,-0.71 0.71,-0.71l18.24 0c0.43,0 0.71,0.28 0.71,0.71l0 3.9c0,0.43 -0.28,0.71 -0.71,0.71l-12.77 0c-0.28,0 -0.43,0.14 -0.43,0.43l0 15.33c0,0.28 0.14,0.43 0.43,0.43l11.07 0c0.43,0 0.71,0.28 0.71,0.71l0 3.9c0,0.43 -0.28,0.71 -0.71,0.71l-11.07 0c-0.28,0 -0.43,0.14 -0.43,0.43l0 20.3c0,0.42 -0.28,0.71 -0.71,0.71l-4.33 0c-0.43,0 -0.71,-0.28 -0.71,-0.71l0 -46.84z"/>
   <path class="fil1" d="M956.85 400.76l-4.11 -21.01 -0.21 0 -4.4 21.01 8.73 0zm-7.17 -31.3c0.14,-0.42 0.36,-0.71 0.78,-0.71l4.26 0c0.43,0 0.71,0.28 0.78,0.71l10.15 46.84c0.07,0.42 -0.21,0.71 -0.64,0.71l-4.26 0c-0.5,0 -0.71,-0.28 -0.78,-0.71l-2.13 -10.58 -10.71 0 -2.13 10.58c-0.07,0.42 -0.28,0.71 -0.71,0.71l-4.26 0c-0.43,0 -0.71,-0.28 -0.64,-0.71l10.29 -46.84z"/>
   <path class="fil1" d="M991.06 369.46c0,-0.42 0.28,-0.71 0.71,-0.71l4.33 0c0.42,0 0.71,0.28 0.71,0.71l0 41.8c0,0.28 0.14,0.43 0.43,0.43l12.63 0c0.42,0 0.71,0.28 0.71,0.71l0 3.91c0,0.42 -0.28,0.71 -0.71,0.71l-18.1 0c-0.43,0 -0.71,-0.28 -0.71,-0.71l0 -46.84z"/>
   <path class="fil1" d="M1036.34 369.46c0,-0.42 0.28,-0.71 0.71,-0.71l4.33 0c0.43,0 0.71,0.28 0.71,0.71l0 41.8c0,0.28 0.14,0.43 0.43,0.43l12.63 0c0.43,0 0.71,0.28 0.71,0.71l0 3.91c0,0.42 -0.28,0.71 -0.71,0.71l-18.1 0c-0.43,0 -0.71,-0.28 -0.71,-0.71l0 -46.84z"/>
   <path class="fil1" d="M1120.93 417.01c-0.43,0 -0.71,-0.28 -0.71,-0.71l0 -41.8c0,-0.28 -0.14,-0.43 -0.43,-0.43l-7.95 0c-0.42,0 -0.71,-0.28 -0.71,-0.71l0 -3.9c0,-0.42 0.28,-0.71 0.71,-0.71l22.5 0c0.43,0 0.71,0.28 0.71,0.71l0 3.9c0,0.43 -0.28,0.71 -0.71,0.71l-7.95 0c-0.28,0 -0.43,0.14 -0.43,0.43l0 41.8c0,0.43 -0.28,0.71 -0.71,0.71l-4.33 0z"/>
   <path class="fil1" d="M1160.31 369.46c0,-0.42 0.28,-0.71 0.71,-0.71l4.33 0c0.42,0 0.71,0.28 0.71,0.71l0 46.84c0,0.42 -0.28,0.71 -0.71,0.71l-4.33 0c-0.43,0 -0.71,-0.28 -0.71,-0.71l0 -46.84z"/>
   <path class="fil1" d="M1194.45 369.46c0,-0.42 0.28,-0.71 0.71,-0.71l4.4 0c0.57,0 0.85,0.21 0.99,0.71l8.8 29.52 0.28 0 8.59 -29.52c0.14,-0.5 0.5,-0.71 1.07,-0.71l4.33 0c0.43,0 0.71,0.28 0.71,0.71l0 46.84c0,0.42 -0.28,0.71 -0.71,0.71l-3.83 0c-0.43,0 -0.71,-0.28 -0.71,-0.71l0 -33.43 -0.35 0 -7.31 24.84c-0.14,0.43 -0.43,0.71 -0.85,0.71l-2.34 0c-0.5,0 -0.71,-0.28 -0.85,-0.71l-7.31 -24.84 -0.35 0 0 33.43c0,0.42 -0.28,0.71 -0.71,0.71l-3.83 0c-0.42,0 -0.71,-0.28 -0.71,-0.71l0 -46.84z"/>
   <path class="fil1" d="M1252.71 369.46c0,-0.42 0.28,-0.71 0.71,-0.71l18.24 0c0.43,0 0.71,0.28 0.71,0.71l0 3.9c0,0.43 -0.28,0.71 -0.71,0.71l-12.77 0c-0.28,0 -0.43,0.14 -0.43,0.43l0 15.04c0,0.28 0.14,0.42 0.43,0.42l11.07 0c0.43,0 0.71,0.28 0.71,0.71l0 3.9c0,0.42 -0.28,0.71 -0.71,0.71l-11.07 0c-0.28,0 -0.43,0.14 -0.43,0.43l0 15.54c0,0.28 0.14,0.43 0.43,0.43l12.77 0c0.43,0 0.71,0.28 0.71,0.71l0 3.91c0,0.42 -0.28,0.71 -0.71,0.71l-18.24 0c-0.42,0 -0.71,-0.28 -0.71,-0.71l0 -46.84z"/>
   <path class="fil0" d="M1360 347.33l0 -4.72 95.38 -96.64c9.44,-9.44 16.58,-17.73 21.4,-24.87 4.83,-7.13 8.08,-13.8 9.76,-19.99 1.68,-6.19 2.52,-12.33 2.52,-18.41 0,-15.53 -5.25,-27.86 -15.74,-36.99 -10.49,-9.13 -25.71,-13.69 -45.64,-13.69 -15.11,0 -28.22,2.2 -39.35,6.61 -11.12,4.41 -20.67,11.12 -28.65,20.15l-4.41 -4.41c8.18,-9.23 18.31,-16.26 30.38,-21.09 12.07,-4.83 26.07,-7.24 42.02,-7.24 13.85,0 25.86,2.26 36.04,6.77 10.18,4.51 17.99,10.97 23.45,19.36 5.46,8.39 8.19,18.47 8.19,30.22 0,6.93 -1,13.75 -2.99,20.46 -1.99,6.71 -5.51,13.85 -10.55,21.4 -5.04,7.56 -12.38,16.16 -22.03,25.81l-92.54 93.81 -3.78 -2.52 143.85 0 0 5.98 -147.31 0z"/>
   <path id="_1" class="fil0" d="M1553.91 348.28c-2.1,0 -3.99,-0.84 -5.67,-2.52 -1.68,-1.68 -2.52,-3.57 -2.52,-5.66 0,-2.31 0.84,-4.25 2.52,-5.82 1.68,-1.57 3.57,-2.36 5.67,-2.36 2.31,0 4.25,0.79 5.82,2.36 1.57,1.57 2.36,3.52 2.36,5.82 0,2.1 -0.79,3.99 -2.36,5.66 -1.57,1.68 -3.51,2.52 -5.82,2.52z"/>
   <path id="_2" class="fil0" d="M1694.61 348.28c-16.58,0 -31.21,-4.57 -43.91,-13.69 -12.7,-9.13 -22.56,-22.03 -29.59,-38.72 -7.03,-16.68 -10.54,-36.25 -10.54,-58.71 0,-22.45 3.51,-42.02 10.54,-58.71 7.03,-16.68 16.89,-29.59 29.59,-38.72 12.7,-9.13 27.33,-13.69 43.91,-13.69 16.79,0 31.48,4.57 44.07,13.69 12.59,9.13 22.4,22.03 29.43,38.72 7.03,16.68 10.54,36.25 10.54,58.71 0,22.45 -3.52,42.02 -10.54,58.71 -7.03,16.68 -16.84,29.59 -29.43,38.72 -12.59,9.13 -27.28,13.69 -44.07,13.69zm0 -5.98c15.53,0 29.12,-4.3 40.76,-12.91 11.65,-8.6 20.72,-20.78 27.23,-36.51 6.51,-15.74 9.76,-34.31 9.76,-55.72 0,-21.62 -3.25,-40.24 -9.76,-55.87 -6.51,-15.63 -15.58,-27.75 -27.23,-36.36 -11.65,-8.6 -25.23,-12.91 -40.76,-12.91 -15.32,0 -28.85,4.3 -40.61,12.91 -11.75,8.6 -20.88,20.72 -27.39,36.36 -6.51,15.63 -9.76,34.26 -9.76,55.87 0,21.4 3.25,39.98 9.76,55.72 6.5,15.74 15.63,27.91 27.39,36.51 11.75,8.6 25.29,12.91 40.61,12.91z"/>
  </g>
 </g>
</svg>
