<svg xmlns="http://www.w3.org/2000/svg" xmlns:xlink="http://www.w3.org/1999/xlink" viewBox="0 0 479.39 480.31"><defs><style>.cls-1{mask:url(#mask);filter:url(#luminosity-noclip-4);}.cls-2,.cls-4,.cls-6,.cls-9{mix-blend-mode:multiply;}.cls-2{fill:url(#radial-gradient);}.cls-3{mask:url(#mask-2);filter:url(#luminosity-noclip-5);}.cls-4{fill:url(#radial-gradient-2);}.cls-5{mask:url(#mask-3);filter:url(#luminosity-noclip-6);}.cls-6{fill:url(#linear-gradient);}.cls-7{isolation:isolate;}.cls-8{fill:#494949;}.cls-10{fill:#1b1918;}.cls-11{fill:#c2a77b;}.cls-12{fill:url(#radial-gradient-3);}.cls-13{mask:url(#mask-4);}.cls-14{mix-blend-mode:color-dodge;fill:url(#radial-gradient-4);}.cls-15{mask:url(#mask-5);}.cls-16{opacity:0.7;fill:url(#radial-gradient-5);}.cls-17,.cls-39{fill:#fff;}.cls-18{fill:#efefef;}.cls-19{fill:#dfdfdf;}.cls-20{fill:#cfcfcf;}.cls-21{fill:#bfbfbf;}.cls-22{fill:#afafaf;}.cls-23{fill:#9f9f9f;}.cls-24{fill:#8f8f8f;}.cls-25{fill:gray;}.cls-26{fill:#707070;}.cls-27{fill:#606060;}.cls-28{fill:#505050;}.cls-29{fill:#404040;}.cls-30{fill:#303030;}.cls-31{fill:#202020;}.cls-32{fill:#101010;}.cls-33{fill:url(#radial-gradient-6);}.cls-34{mask:url(#mask-6);}.cls-35{opacity:0.2;fill:url(#linear-gradient-2);}.cls-36{fill:url(#linear-gradient-3);}.cls-37,.cls-38{fill:#c5a163;}.cls-38,.cls-39{font-size:30px;font-family:Montserrat-Medium, Montserrat;font-weight:500;}.cls-40{filter:url(#luminosity-noclip-3);}.cls-41{filter:url(#luminosity-noclip-2);}.cls-42{filter:url(#luminosity-noclip);}</style><filter id="luminosity-noclip" x="0.46" y="-6225.18" width="478.26" height="32766" filterUnits="userSpaceOnUse" color-interpolation-filters="sRGB"><feFlood flood-color="#fff" result="bg"/><feBlend in="SourceGraphic" in2="bg"/></filter><mask id="mask" x="0.46" y="-6225.18" width="478.26" height="32766" maskUnits="userSpaceOnUse"><g class="cls-42"/></mask><radialGradient id="radial-gradient" cx="511.68" cy="-47.56" r="567.89" gradientUnits="userSpaceOnUse"><stop offset="0" stop-color="#fff"/><stop offset="0.19" stop-color="#fff"/><stop offset="0.95"/></radialGradient><filter id="luminosity-noclip-2" x="0.46" y="-6225.18" width="478.26" height="32766" filterUnits="userSpaceOnUse" color-interpolation-filters="sRGB"><feFlood flood-color="#fff" result="bg"/><feBlend in="SourceGraphic" in2="bg"/></filter><mask id="mask-2" x="0.46" y="-6225.18" width="478.26" height="32766" maskUnits="userSpaceOnUse"><g class="cls-41"/></mask><radialGradient id="radial-gradient-2" cx="511.68" cy="-47.56" r="567.89" gradientUnits="userSpaceOnUse"><stop offset="0.26"/><stop offset="0.32" stop-color="#080808"/><stop offset="0.42" stop-color="#1f1f1f"/><stop offset="0.54" stop-color="#434343"/><stop offset="0.69" stop-color="#767676"/><stop offset="0.84" stop-color="#b7b7b7"/><stop offset="1" stop-color="#fff"/></radialGradient><filter id="luminosity-noclip-3" x="75.51" y="-6225.18" width="328.14" height="32766" filterUnits="userSpaceOnUse" color-interpolation-filters="sRGB"><feFlood flood-color="#fff" result="bg"/><feBlend in="SourceGraphic" in2="bg"/></filter><mask id="mask-3" x="75.51" y="-6225.18" width="328.14" height="32766" maskUnits="userSpaceOnUse"><g class="cls-40"/></mask><linearGradient id="linear-gradient" x1="75.51" y1="165.52" x2="403.65" y2="165.52" gradientUnits="userSpaceOnUse"><stop offset="0.2"/><stop offset="0.3" stop-color="#191919"/><stop offset="0.51" stop-color="#595959"/><stop offset="0.82" stop-color="#bfbfbf"/><stop offset="1" stop-color="#fff"/></linearGradient><radialGradient id="radial-gradient-3" cx="502.66" cy="-37.94" r="548.9" gradientUnits="userSpaceOnUse"><stop offset="0" stop-color="#303030"/><stop offset="0.95" stop-color="#080402"/></radialGradient><filter id="luminosity-noclip-4" x="0.46" y="0.76" width="478.26" height="478.41" filterUnits="userSpaceOnUse" color-interpolation-filters="sRGB"><feFlood flood-color="#fff" result="bg"/><feBlend in="SourceGraphic" in2="bg"/></filter><mask id="mask-4" x="0.46" y="0.76" width="478.26" height="478.41" maskUnits="userSpaceOnUse"><g class="cls-1"><path class="cls-2" d="M478.71,239.2a238.44,238.44,0,0,0-407-168.6q-4.71,4.7-9.11,9.63a238.45,238.45,0,0,0,345,329.1q4.71-4.71,9.11-9.63A236.77,236.77,0,0,0,478.71,239.2Z"/></g></mask><radialGradient id="radial-gradient-4" cx="511.68" cy="-47.56" r="567.89" gradientUnits="userSpaceOnUse"><stop offset="0" stop-color="#fff"/><stop offset="0.19" stop-color="#865f13"/><stop offset="0.95"/></radialGradient><filter id="luminosity-noclip-5" x="0.46" y="0.76" width="478.26" height="478.41" filterUnits="userSpaceOnUse" color-interpolation-filters="sRGB"><feFlood flood-color="#fff" result="bg"/><feBlend in="SourceGraphic" in2="bg"/></filter><mask id="mask-5" x="0.46" y="0.76" width="478.26" height="478.41" maskUnits="userSpaceOnUse"><g class="cls-3"><path class="cls-4" d="M478.71,239.2A238.45,238.45,0,0,0,71.65,70.6q-4.7,4.7-9.1,9.63a238.45,238.45,0,0,0,345,329.1q4.71-4.71,9.11-9.63A236.77,236.77,0,0,0,478.71,239.2Z"/></g></mask><radialGradient id="radial-gradient-5" cx="511.68" cy="-47.56" r="567.89" gradientUnits="userSpaceOnUse"><stop offset="0.26"/><stop offset="1" stop-color="#050505"/></radialGradient><radialGradient id="radial-gradient-6" cx="426.59" cy="42.84" r="390.19" xlink:href="#radial-gradient-3"/><filter id="luminosity-noclip-6" x="75.51" y="76.03" width="328.14" height="178.97" filterUnits="userSpaceOnUse" color-interpolation-filters="sRGB"><feFlood flood-color="#fff" result="bg"/><feBlend in="SourceGraphic" in2="bg"/></filter><mask id="mask-6" x="75.51" y="76.03" width="328.14" height="178.97" maskUnits="userSpaceOnUse"><g class="cls-5"><path class="cls-6" d="M206.17,240.2c82.35,22.05,148.09,16.65,197.46,2.1,0-.64,0-1.27,0-1.91A164.35,164.35,0,0,0,75.51,226.81C106,222.22,148.08,224.64,206.17,240.2Z"/></g></mask><linearGradient id="linear-gradient-2" x1="75.51" y1="165.52" x2="403.65" y2="165.52" gradientUnits="userSpaceOnUse"><stop offset="0.2" stop-color="#303030"/><stop offset="0.33" stop-color="#49453e"/><stop offset="0.6" stop-color="#897a61"/><stop offset="1" stop-color="#efcf99"/><stop offset="1" stop-color="#f0d09a"/></linearGradient><linearGradient id="linear-gradient-3" x1="449.02" y1="54.88" x2="161.21" y2="308.64" gradientUnits="userSpaceOnUse"><stop offset="0" stop-color="#635037"/><stop offset="0.04" stop-color="#594831"/><stop offset="0.15" stop-color="#453625"/><stop offset="0.22" stop-color="#3d3020"/><stop offset="0.26" stop-color="#50412d"/><stop offset="0.34" stop-color="#836e50"/><stop offset="0.45" stop-color="#d3b686"/><stop offset="0.49" stop-color="#f4d49d"/><stop offset="0.52" stop-color="#dbbe8f"/><stop offset="0.56" stop-color="#c2a980"/><stop offset="0.6" stop-color="#af9875"/><stop offset="0.65" stop-color="#a18c6d"/><stop offset="0.72" stop-color="#998568"/><stop offset="0.83" stop-color="#978367"/><stop offset="0.99" stop-color="#3d3020"/></linearGradient></defs><g class="cls-7"><g id="Layer_2" data-name="Layer 2"><g id="Layer_1-2" data-name="Layer 1"><path class="cls-8" d="M240.94,476.9A238.45,238.45,0,0,1,72.34,69.84,238.45,238.45,0,0,1,409.55,407.06,236.93,236.93,0,0,1,240.94,476.9Z"/><g class="cls-9"><path d="M238.45,480.31A238.45,238.45,0,0,1,69.84,73.25,238.45,238.45,0,0,1,407.06,410.47,236.89,236.89,0,0,1,238.45,480.31Z"/></g><path class="cls-10" d="M239.59,478.41A238.44,238.44,0,0,1,71,71.35,238.45,238.45,0,0,1,408.19,408.57,236.91,236.91,0,0,1,239.59,478.41Z"/><path class="cls-11" d="M405,74.55A233.92,233.92,0,1,0,74.18,405.37,233.92,233.92,0,0,0,405,74.55Z"/><path class="cls-12" d="M239.59,471.16A231.2,231.2,0,0,1,76.1,76.48a231.2,231.2,0,0,1,327,327A229.72,229.72,0,0,1,239.59,471.16Z"/><g class="cls-13"><path class="cls-14" d="M478.71,239.2a238.44,238.44,0,0,0-407-168.6q-4.71,4.7-9.11,9.63a238.45,238.45,0,0,0,345,329.1q4.71-4.71,9.11-9.63A236.77,236.77,0,0,0,478.71,239.2Z"/></g><g class="cls-15"><path class="cls-16" d="M478.71,239.2A238.45,238.45,0,0,0,71.65,70.6q-4.7,4.7-9.1,9.63a238.45,238.45,0,0,0,345,329.1q4.71-4.71,9.11-9.63A236.77,236.77,0,0,0,478.71,239.2Z"/></g><g class="cls-9"><path class="cls-17" d="M387.23,261.33c0-.13,0-.26,0-.39A164.48,164.48,0,0,0,58.82,248.21l.21,0q-.48,6.33-.49,12.76v.85a164.35,164.35,0,0,0,328.7,0C387.24,261.63,387.23,261.48,387.23,261.33Z"/><path class="cls-18" d="M388.22,260.1v-.39A164.41,164.41,0,0,0,67.33,209.42,166.38,166.38,0,0,0,59.8,247l.21,0q-.48,6.33-.49,12.76c0,.14,0,.27,0,.41s0,.29,0,.44a164.35,164.35,0,1,0,328.7,0Z"/><path class="cls-19" d="M389.2,258.87c0-.13,0-.26,0-.39A164.41,164.41,0,0,0,68.32,208.2a165.64,165.64,0,0,0-7.53,37.55l.21,0q-.48,6.34-.49,12.76v.85a164.35,164.35,0,1,0,328.7,0C389.21,259.18,389.2,259,389.2,258.87Z"/><path class="cls-20" d="M390.19,257.64v-.38A164.41,164.41,0,0,0,69.3,207a166.27,166.27,0,0,0-7.53,37.56,1.52,1.52,0,0,1,.21,0q-.48,6.33-.49,12.76c0,.13,0,.27,0,.4s0,.3,0,.45a164.35,164.35,0,1,0,328.7,0Z"/><path class="cls-21" d="M391.17,256.42c0-.13,0-.26,0-.39A164.41,164.41,0,0,0,70.29,205.74a165.29,165.29,0,0,0-7.53,37.56l.21,0q-.48,6.33-.49,12.76v.85a164.35,164.35,0,0,0,328.7,0C391.18,256.73,391.17,256.57,391.17,256.42Z"/><path class="cls-22" d="M392.16,255.19v-.39A164.41,164.41,0,0,0,71.27,204.52a166.19,166.19,0,0,0-7.53,37.55l.21,0q-.48,6.35-.49,12.76c0,.14,0,.27,0,.41s0,.29,0,.44a164.35,164.35,0,1,0,328.7,0Z"/><path class="cls-23" d="M393.14,254c0-.13,0-.25,0-.38A164.41,164.41,0,0,0,72.26,203.29a165.1,165.1,0,0,0-7.53,37.55l.21,0q-.5,6.33-.49,12.76v.84a164.35,164.35,0,1,0,328.7,0C393.15,254.27,393.14,254.12,393.14,254Z"/><path class="cls-24" d="M394.13,252.74v-.39A164.41,164.41,0,0,0,73.24,202.06a166.27,166.27,0,0,0-7.53,37.56l.21,0q-.48,6.33-.49,12.76c0,.13,0,.27,0,.4s0,.3,0,.45a164.35,164.35,0,1,0,328.7,0Z"/><path class="cls-25" d="M395.11,251.51c0-.13,0-.26,0-.39A164.41,164.41,0,0,0,74.23,200.83a165.29,165.29,0,0,0-7.53,37.56l.21,0q-.5,6.33-.49,12.76V252a164.35,164.35,0,1,0,328.7,0C395.12,251.82,395.11,251.66,395.11,251.51Z"/><path class="cls-26" d="M396.1,250.28v-.39A164.41,164.41,0,0,0,75.21,199.61a166.19,166.19,0,0,0-7.53,37.55l.21,0q-.48,6.35-.49,12.76c0,.14,0,.27,0,.41s0,.3,0,.44a164.35,164.35,0,1,0,328.7,0Z"/><path class="cls-27" d="M397.08,249.05c0-.12,0-.25,0-.38A164.41,164.41,0,0,0,76.2,198.38a165.18,165.18,0,0,0-7.53,37.56l.21,0q-.5,6.33-.49,12.76v.85a164.35,164.35,0,0,0,328.7,0C397.09,249.36,397.08,249.21,397.08,249.05Z"/><path class="cls-28" d="M398.07,247.83v-.39A164.41,164.41,0,0,0,77.18,197.15a165.83,165.83,0,0,0-7.53,37.56l.21,0q-.48,6.33-.49,12.76c0,.14,0,.27,0,.41s0,.29,0,.44a164.35,164.35,0,1,0,328.7,0Z"/><path class="cls-29" d="M399.05,246.6c0-.13,0-.26,0-.39A164.41,164.41,0,0,0,78.17,195.93a165.1,165.1,0,0,0-7.53,37.55l.21,0q-.5,6.35-.49,12.76v.85a164.35,164.35,0,1,0,328.7,0C399.06,246.91,399.05,246.75,399.05,246.6Z"/><path class="cls-30" d="M400,245.37V245A164.41,164.41,0,0,0,79.15,194.7a165.64,165.64,0,0,0-7.53,37.55l.21,0q-.48,6.33-.49,12.76c0,.13,0,.27,0,.4s0,.3,0,.44a164.35,164.35,0,1,0,328.7,0Z"/><path class="cls-31" d="M401,244.15c0-.13,0-.26,0-.39A164.41,164.41,0,0,0,80.14,193.47,165.18,165.18,0,0,0,72.61,231l.21,0q-.5,6.33-.49,12.76v.85a164.35,164.35,0,0,0,328.7,0C401,244.45,401,244.3,401,244.15Z"/><path class="cls-32" d="M402,242.92v-.39A164.41,164.41,0,0,0,81.12,192.24a165.83,165.83,0,0,0-7.53,37.56l.21,0q-.48,6.33-.49,12.76c0,.14,0,.27,0,.41s0,.29,0,.44a164.35,164.35,0,1,0,328.7,0Z"/><path d="M403,241.69c0-.13,0-.26,0-.39A164.48,164.48,0,0,0,74.58,228.57l.21,0q-.5,6.35-.49,12.76v.85a164.35,164.35,0,1,0,328.7,0C403,242,403,241.85,403,241.69Z"/></g><path class="cls-8" d="M355.8,123.32a164.37,164.37,0,1,0,48.13,116.21A163.31,163.31,0,0,0,355.8,123.32Z"/><path class="cls-33" d="M355.8,124.18a164.36,164.36,0,1,0,48.13,116.21A163.26,163.26,0,0,0,355.8,124.18Z"/><g class="cls-34"><path class="cls-35" d="M206.17,240.2c82.35,22.05,148.09,16.65,197.46,2.1,0-.64,0-1.27,0-1.91A164.35,164.35,0,0,0,75.51,226.81C106,222.22,148.08,224.64,206.17,240.2Z"/></g><path class="cls-36" d="M344,135.13a147.64,147.64,0,1,0,43.25,104.4A146.67,146.67,0,0,0,344,135.13Zm-2.36,206.45a144.31,144.31,0,1,1,42.27-102A143.36,143.36,0,0,1,341.63,341.58Z"/><path class="cls-37" d="M275.31,331.77c1.38-3.4,3-6.61,4-10,4.39-14.07,1.4-26.87-7.85-38-5.56-6.68-12.1-12.53-18-18.9-3.75-4-7.27-8.24-10.75-12.49-1-1.19-1.44-2.78-2.7-4.09.19,3.12.37,6.23.56,9.34l-.77.22c-.52-.65-1.1-1.25-1.55-1.94-1.21-1.84-2.23-3.82-3.56-5.56-4.58-6-8.3-12.36-9.29-20a26.5,26.5,0,0,1,4.54-18.92,6.07,6.07,0,0,0,.5-.81c.05-.11,0-.29,0-.68a28.4,28.4,0,0,0-9.36,8c-9.39,12.21-9.2,25.79.86,37.45,3,3.46,6.91,6.07,10.27,9.21,9.54,8.9,21.59,14.61,30.5,24.34,12.7,13.88,14,30.47,3.36,46a29,29,0,0,1-3.28,4.08c3.33-10,3.66-19.69-1.54-29.07-3.6-6.5-8.81-11.4-15.53-15.4,2,4.14,3.95,7.76,5.43,11.58,4.32,11.08,5.52,22.32,1,33.69-2.36,5.92-7.61,13.06-11.53,15.49.13-2.32.39-4.51.34-6.7-.16-6.81-2.73-12.75-6.85-18.08-5.7-7.37-13-12.94-20.42-18.42-9.71-7.17-19.59-14.14-29-21.65-12.72-10.11-20.14-31.71-9.58-52a9.06,9.06,0,0,1,.77-.95c0,3-.17,5.72,0,8.38a38,38,0,0,0,1.6,7.75c2-16.84,9.82-30,24.17-39.15-.33.48-.64,1-1,1.43-8.27,11.23-13.22,23.56-12,37.76,1,11.2,5.58,20.58,14.72,27.47a9.26,9.26,0,0,1,.87.79l-.12.75-11.39-1.52c.94.79,1.51,1.36,2.16,1.79,8.28,5.46,16.69,10.72,24.82,16.38A120.77,120.77,0,0,1,235,311.63c3.18,3.09,5.17,7.4,7.69,11.16l.6.95.62-.12c-.29-2.37-.4-4.78-.89-7.11a43.28,43.28,0,0,0-11.63-21.18c-5.31-5.54-10.86-10.86-16.23-16.34-6.15-6.28-11.79-13-14.2-21.65-4.58-16.44-.3-30.62,11.59-42.66a52.85,52.85,0,0,1,29.19-15c.91-.16,1.81-.38,3.08-.64-6.25-2.55-22.86-2.19-33.89.85-11.22,3.1-20.5,9.48-28.71,17.58,6.83-13.77,18.67-21.67,32.42-27.36-.05-.23-.09-.45-.14-.68-2.6.31-5.23.46-7.79,1s-5.17,1.42-8.44,2.34a34.77,34.77,0,0,1,11.28-7.38c10.34-4.19,20.92-3.88,31.63-1.75,5.33,1.06,10.68,2,16.06,2.85s10.52.5,15.58-2.15a12.19,12.19,0,0,0,.8,1.73c1.68,2.48,3.08,5.26,5.18,7.32,4.05,4,8.51,7.52,12.76,11.28.63.56,1.55,1.36,1.51,2-.25,4.19,2.72,6.3,5.35,8.6,7.58,6.63,15.24,13.18,22.83,19.81a21.62,21.62,0,0,1,2.34,3.15H307c.34,2.74,2.81,5,6,5.68,1.24.27,2.53.37,3.79.6,2.93.55,4.2,2.47,3.59,5.4-1.25,6-5.54,9.54-11.61,9.54H294.81a6.63,6.63,0,0,1-2.37-.2,35,35,0,0,1-14.56-11.74c-1.15-1.55-.16-2.89,1.14-3.61a35.29,35.29,0,0,1,5.51-2.23c1.46-.51,2.84-1,3.11-3.15l-2.88-.16c-5.74-.34-11.6,0-17.19-1.17-8.87-1.79-14.62-8-18.21-16-2.44-5.41-.75-10.41,4.06-14,2.33-1.75,5-3,7.56-5.08-2.83.28-5.68.45-8.48.9a19.47,19.47,0,0,0-4.55,1.46,18,18,0,0,0-7.69,27.09,96.64,96.64,0,0,0,8.51,9.74c3.2,3.46,6.69,6.68,9.75,10.25,2.83,3.3,5.27,6.93,8,10.52.19-2,.39-4.21.65-7,10.56,13,20.3,25.84,20.62,43.24,3.37-1.92,4.26-6.62,3.47-18.15l.58-.41c1.17,1.79,2.66,3.45,3.46,5.4,3.05,7.48,2.08,15-.86,22.21-3.94,9.69-10.79,17.3-18.4,24.26C275.87,331.69,275.61,331.69,275.31,331.77Zm8.18-119.53H264.74a4.78,4.78,0,0,0,4.18,3.38A54.93,54.93,0,0,1,288,222.46c1.85,1.11,3.81,2,5.72,3.06.15-.22.29-.44.44-.65-1.7-1.38-3.2-3.18-5.13-4.05C285.3,219.14,284.33,216,283.49,212.24Z"/><path class="cls-37" d="M226.13,144.35l13.33-22.85,13.18,22.63c-5.62,5.8-6.63,11.05-2.94,16.44A12.49,12.49,0,0,0,265,165.09c5.77-2.46,8.32-8.05,6.86-15.4l18.64-10.84.31.31c-2.3,4.34-4.76,8.6-6.86,13-2.39,5.05-4.6,10.2-6.64,15.4-3.1,7.91-9.68,12.21-18.08,11-6-.87-11.95-2.18-17.85-3.6-9.68-2.34-19.36-3.62-29.18-1.07-2.45.64-4.8,1.7-7.5,2.67-3.91-13-9.91-25.31-16.91-37.91,1.24.62,1.85.89,2.43,1.22,5.12,3,10.22,6,15.36,8.89a2,2,0,0,1,1.2,2.63,12.17,12.17,0,0,0,7.45,13.78,12.47,12.47,0,0,0,15.29-5.1c3.18-5.15,2.25-11-2.43-15.11A4.79,4.79,0,0,0,226.13,144.35Z"/><path class="cls-37" d="M306,287.28c-1.69-11.47-9.44-14.59-19.17-15.37a9.84,9.84,0,0,1,8.51-5.62,135.83,135.83,0,0,1,14.13-.28c2.5,0,4,2.07,3.79,4.86C312.8,276.9,310.18,282,306,287.28Z"/><text class="cls-38" transform="matrix(-0.02, 1, -1, -0.02, 43.56, 228.05)">T</text><text class="cls-38" transform="matrix(0.09, 1, -1, 0.09, 43.04, 247.13)">H</text><text class="cls-38" transform="translate(45.61 272.9) rotate(77.86)">E</text><text class="cls-38" transform="translate(50.87 295.45) rotate(72.8)"> </text><text class="cls-38" transform="translate(53.44 303.71) rotate(70.24)"> </text><text class="cls-38" transform="translate(52.01 300.32) rotate(69.09)">G</text><text class="cls-38" transform="translate(60.98 323.39) rotate(61.96)">R</text><text class="cls-38" transform="translate(72.05 343.87) rotate(55.35)">E</text><text class="cls-38" transform="translate(84.33 361.58) rotate(48.81)">A</text><text class="cls-38" transform="translate(99.05 378.21) rotate(43.08)">T</text><text class="cls-38" transform="matrix(0.8, 0.61, -0.61, 0.8, 112.86, 391.13)">E</text><text class="cls-38" transform="translate(130 404.03) rotate(31.18)">S</text><text class="cls-38" transform="translate(146.78 414.1) rotate(25.54)">T</text><text class="cls-38" transform="translate(163.58 421.91) rotate(21.46)"> </text><text class="cls-39" transform="translate(172.08 425.61) rotate(16.19)">O</text><text class="cls-39" transform="translate(197.84 432.79) rotate(9.22)">F</text><text class="cls-39" transform="translate(217.97 435.99) rotate(3.31)">F</text><text class="cls-39" transform="translate(238.24 437.12) rotate(-2.65)">E</text><text class="cls-39" transform="translate(259.76 436.1) rotate(-9.14)">R</text><text class="cls-39" transform="translate(282.31 432.15) rotate(-14.03)">I</text><text class="cls-39" transform="translate(292.57 429.9) rotate(-19.36)">N</text><text class="cls-39" transform="matrix(0.89, -0.45, 0.45, 0.89, 317.11, 421.12)">G</text><text class="cls-39" transform="translate(338.55 409.82) rotate(-31.83)"> </text><text class="cls-39" transform="translate(346.6 405.22) rotate(-37.06)">O</text><text class="cls-39" transform="matrix(0.72, -0.69, 0.69, 0.72, 367.74, 388.9)">F</text><text class="cls-39" transform="translate(381.93 374.91) rotate(-47.84)"> </text><text class="cls-39" transform="matrix(0.61, -0.79, 0.79, 0.61, 388.19, 368.39)">A</text><text class="cls-39" transform="translate(402.38 349.84) rotate(-58.38)">L</text><text class="cls-39" transform="matrix(0.44, -0.9, 0.9, 0.44, 412.32, 333.58)">L</text><text class="cls-39" transform="translate(420.33 316.66) rotate(-68.12)"> </text><text class="cls-39" transform="translate(423.81 308.36) rotate(-72.2)">T</text><text class="cls-39" transform="translate(429.31 290.62) rotate(-76.46)">I</text><text class="cls-39" transform="matrix(0.13, -0.99, 0.99, 0.13, 432.22, 280.37)">M</text><text class="cls-39" transform="translate(435.77 250.27) rotate(-89.58)">E</text><text class="cls-39" transform="translate(435.6 229.23) rotate(-94.23)"> </text></g></g></g></svg>