<?xml version="1.0" encoding="UTF-8"?>
<!DOCTYPE svg PUBLIC "-//W3C//DTD SVG 1.0//EN" "http://www.w3.org/TR/2001/REC-SVG-20010904/DTD/svg10.dtd">
<!-- Creator: CorelDRAW 2021.5 -->
<svg xmlns="http://www.w3.org/2000/svg" xml:space="preserve" width="38.4211mm" height="12.9941mm" version="1.0" style="shape-rendering:geometricPrecision; text-rendering:geometricPrecision; image-rendering:optimizeQuality; fill-rule:evenodd; clip-rule:evenodd"
viewBox="0 0 531.58 179.78"
 xmlns:xlink="http://www.w3.org/1999/xlink"
 xmlns:xodm="http://www.corel.com/coreldraw/odm/2003">
 <defs>
  <style type="text/css">
   <![CDATA[
    .fil1 {fill:#D92727;fill-rule:nonzero}
    .fil0 {fill:white;fill-rule:nonzero}
   ]]>
  </style>
 </defs>
 <g id="Layer_x0020_1">
  <metadata id="CorelCorpID_0Corel-Layer"/>
  <g id="RAMA_x0020_LOGO">
   <path class="fil0" d="M513.97 125.95l7.17 0 0 0.73 -3.16 0 0 8.31 -0.86 0 0 -8.31 -3.15 0 0 -0.73z"/>
   <path class="fil0" d="M522.81 125.95l1.27 0 3.13 7.92 3.12 -7.92 1.26 0 0 9.04 -0.86 0 0 -7.81 -0.03 0 -3.08 7.81 -0.81 0 -3.1 -7.81 -0.02 0 0 7.81 -0.86 0 0 -9.04z"/>
   <path class="fil0" d="M14.73 151.74l7.7 0c0.67,0 1.39,-0.04 2.18,-0.13 0.78,-0.09 1.48,-0.3 2.1,-0.63 0.63,-0.33 1.15,-0.82 1.57,-1.44 0.42,-0.63 0.64,-1.47 0.64,-2.54 0,-1.52 -0.51,-2.69 -1.54,-3.51 -1.03,-0.82 -2.95,-1.24 -5.75,-1.24l-6.9 0 0 9.5zm-14.73 -20.88l28.04 0c2.1,0 4.08,0.29 5.96,0.87 1.87,0.58 3.52,1.44 4.95,2.58 1.43,1.14 2.57,2.56 3.42,4.25 0.84,1.7 1.27,3.68 1.27,5.96 0,1.25 -0.15,2.49 -0.44,3.71 -0.29,1.23 -0.72,2.38 -1.3,3.45 -0.58,1.07 -1.33,2.03 -2.24,2.88 -0.92,0.85 -1.98,1.5 -3.18,1.94 2.01,0.76 3.62,2.19 4.82,4.29 1.2,2.1 1.94,4.64 2.21,7.63 0.04,0.58 0.09,1.34 0.13,2.28 0.04,0.93 0.12,1.9 0.23,2.91 0.11,1 0.26,1.96 0.43,2.88 0.18,0.92 0.45,1.64 0.81,2.18l-14.73 0c-0.36,-1.21 -0.63,-2.42 -0.8,-3.65 -0.18,-1.23 -0.31,-2.47 -0.4,-3.71 -0.09,-1.11 -0.22,-2.23 -0.37,-3.35 -0.15,-1.11 -0.46,-2.12 -0.9,-3.01 -0.45,-0.89 -1.08,-1.6 -1.91,-2.14 -0.82,-0.54 -1.97,-0.81 -3.45,-0.81l-7.83 0 0 16.67 -14.73 0 0 -47.79z"/>
   <path class="fil0" d="M79.11 161.58l-4.28 -14.73 -0.13 0 -4.62 14.73 9.04 0zm-11.58 -30.72l14.39 0 17.4 47.78 -15.26 0 -2.01 -6.83 -15.19 0 -2.15 6.83 -14.79 0 17.6 -47.78z"/>
   <path class="fil0" d="M105.88 130.86l20.95 0 6.83 28.11 0.14 0 6.82 -28.11 20.95 0 0 47.78 -13.92 0 0 -30.65 -0.13 0 -8.3 30.65 -10.98 0 -8.3 -30.65 -0.13 0 0 30.65 -13.92 0 0 -47.78z"/>
   <path class="fil0" d="M194.62 161.58l-4.28 -14.73 -0.13 0 -4.62 14.73 9.04 0zm-11.58 -30.72l14.39 0 17.4 47.78 -15.26 0 -2.01 -6.83 -15.19 0 -2.15 6.83 -14.79 0 17.6 -47.78z"/>
   <path class="fil0" d="M283.49 173.76c-1.65,2.14 -3.67,3.68 -6.06,4.62 -2.39,0.94 -4.9,1.4 -7.53,1.4 -3.52,0 -6.69,-0.65 -9.5,-1.94 -2.81,-1.29 -5.21,-3.05 -7.19,-5.25 -1.99,-2.21 -3.5,-4.81 -4.55,-7.8 -1.05,-2.99 -1.57,-6.18 -1.57,-9.57 0,-4.55 0.72,-8.44 2.17,-11.68 1.45,-3.23 3.31,-5.86 5.59,-7.9 2.28,-2.03 4.81,-3.53 7.6,-4.48 2.79,-0.96 5.52,-1.44 8.19,-1.44 6.12,0 11.04,1.56 14.79,4.69 3.75,3.12 6.16,7.52 7.23,13.18l-14.12 0c-0.27,-1.74 -1.06,-3.17 -2.38,-4.28 -1.31,-1.12 -2.84,-1.68 -4.58,-1.68 -1.69,0 -3.11,0.27 -4.25,0.81 -1.14,0.53 -2.06,1.23 -2.77,2.07 -0.72,0.85 -1.26,1.8 -1.64,2.84 -0.38,1.05 -0.65,2.09 -0.81,3.11 -0.15,1.03 -0.24,2 -0.26,2.91 -0.02,0.91 -0.03,1.64 -0.03,2.17 0,1.12 0.14,2.38 0.43,3.81 0.29,1.43 0.82,2.77 1.6,4.02 0.78,1.25 1.87,2.31 3.28,3.18 1.41,0.87 3.22,1.31 5.45,1.31 0.85,0 1.68,-0.11 2.51,-0.34 0.82,-0.22 1.59,-0.54 2.31,-0.97 0.72,-0.42 1.32,-0.97 1.81,-1.64 0.49,-0.67 0.82,-1.45 1,-2.34l-6.49 0 0 -10.24 19.54 0 0 26.3 -9.3 0 -0.47 -4.89z"/>
   <path class="fil0" d="M318.63 151.74l7.7 0c0.67,0 1.39,-0.04 2.18,-0.13 0.78,-0.09 1.48,-0.3 2.1,-0.63 0.63,-0.33 1.15,-0.82 1.57,-1.44 0.42,-0.63 0.64,-1.47 0.64,-2.54 0,-1.52 -0.51,-2.69 -1.54,-3.51 -1.03,-0.82 -2.95,-1.24 -5.75,-1.24l-6.9 0 0 9.5zm-14.72 -20.88l28.04 0c2.1,0 4.08,0.29 5.96,0.87 1.87,0.58 3.52,1.44 4.95,2.58 1.43,1.14 2.57,2.56 3.42,4.25 0.85,1.7 1.27,3.68 1.27,5.96 0,1.25 -0.15,2.49 -0.44,3.71 -0.29,1.23 -0.72,2.38 -1.3,3.45 -0.58,1.07 -1.33,2.03 -2.24,2.88 -0.92,0.85 -1.98,1.5 -3.18,1.94 2.01,0.76 3.62,2.19 4.82,4.29 1.2,2.1 1.94,4.64 2.21,7.63 0.04,0.58 0.09,1.34 0.13,2.28 0.04,0.93 0.12,1.9 0.23,2.91 0.11,1 0.26,1.96 0.43,2.88 0.18,0.92 0.45,1.64 0.81,2.18l-14.73 0c-0.36,-1.21 -0.63,-2.42 -0.8,-3.65 -0.18,-1.23 -0.31,-2.47 -0.4,-3.71 -0.09,-1.11 -0.22,-2.23 -0.37,-3.35 -0.15,-1.11 -0.46,-2.12 -0.9,-3.01 -0.45,-0.89 -1.08,-1.6 -1.91,-2.14 -0.82,-0.54 -1.97,-0.81 -3.45,-0.81l-7.83 0 0 16.67 -14.72 0 0 -47.79z"/>
   <path class="fil0" d="M370.16 154.75c0,2.68 0.33,4.86 0.97,6.56 0.64,1.7 1.44,3.02 2.37,3.98 0.94,0.96 1.97,1.63 3.08,2.01 1.11,0.38 2.14,0.57 3.08,0.57 0.93,0 1.96,-0.19 3.07,-0.57 1.12,-0.38 2.15,-1.04 3.08,-2.01 0.94,-0.96 1.73,-2.28 2.38,-3.98 0.65,-1.69 0.97,-3.88 0.97,-6.56 0,-2.68 -0.32,-4.86 -0.97,-6.56 -0.65,-1.69 -1.44,-3.02 -2.38,-3.98 -0.93,-0.96 -1.96,-1.63 -3.08,-2.01 -1.11,-0.38 -2.14,-0.57 -3.07,-0.57 -0.94,0 -1.97,0.19 -3.08,0.57 -1.11,0.38 -2.14,1.05 -3.08,2.01 -0.94,0.96 -1.73,2.29 -2.37,3.98 -0.65,1.69 -0.97,3.88 -0.97,6.56zm-14.72 0c0,-3.66 0.58,-7.02 1.74,-10.07 1.16,-3.05 2.8,-5.69 4.92,-7.89 2.12,-2.21 4.67,-3.94 7.66,-5.19 2.99,-1.25 6.29,-1.87 9.91,-1.87 3.61,0 6.92,0.63 9.9,1.87 2.99,1.25 5.55,2.98 7.67,5.19 2.12,2.21 3.75,4.84 4.92,7.89 1.16,3.06 1.74,6.42 1.74,10.07 0,3.66 -0.58,7.02 -1.74,10.07 -1.16,3.05 -2.8,5.69 -4.92,7.9 -2.12,2.21 -4.68,3.94 -7.67,5.18 -2.99,1.25 -6.29,1.87 -9.9,1.87 -3.62,0 -6.92,-0.63 -9.91,-1.87 -2.99,-1.25 -5.54,-2.98 -7.66,-5.18 -2.12,-2.21 -3.76,-4.85 -4.92,-7.9 -1.16,-3.06 -1.74,-6.41 -1.74,-10.07z"/>
   <path class="fil0" d="M458.16 160.17c0,6.65 -1.78,11.58 -5.36,14.79 -3.57,3.21 -9.03,4.82 -16.39,4.82 -7.36,0 -12.84,-1.6 -16.43,-4.82 -3.59,-3.21 -5.39,-8.14 -5.39,-14.79l0 -29.31 14.72 0 0 26.03c0,1.2 0.03,2.45 0.1,3.75 0.07,1.3 0.33,2.48 0.77,3.55 0.45,1.07 1.16,1.95 2.14,2.65 0.98,0.69 2.36,1.04 4.15,1.04 1.74,0 3.08,-0.35 4.02,-1.04 0.94,-0.69 1.63,-1.58 2.08,-2.65 0.45,-1.07 0.7,-2.25 0.77,-3.55 0.06,-1.29 0.1,-2.54 0.1,-3.75l0 -26.03 14.73 0 0 29.31z"/>
   <path class="fil0" d="M483.66 152.81l5.69 0c0.94,0 1.87,-0.03 2.81,-0.1 0.94,-0.07 1.77,-0.26 2.51,-0.6 0.74,-0.33 1.34,-0.85 1.81,-1.54 0.47,-0.69 0.7,-1.64 0.7,-2.84 0,-1.07 -0.19,-1.92 -0.57,-2.54 -0.38,-0.62 -0.89,-1.09 -1.54,-1.4 -0.65,-0.31 -1.4,-0.5 -2.25,-0.57 -0.85,-0.07 -1.72,-0.1 -2.61,-0.1l-6.56 0 0 9.7zm-14.73 -21.95l24.63 0c3.26,0 6,0.53 8.23,1.6 2.23,1.07 4.04,2.41 5.42,4.01 1.38,1.6 2.38,3.37 2.98,5.29 0.6,1.92 0.9,3.73 0.9,5.42 0,2.91 -0.46,5.41 -1.37,7.53 -0.92,2.12 -2.21,3.89 -3.88,5.29 -1.67,1.41 -3.66,2.45 -5.96,3.14 -2.3,0.69 -4.81,1.03 -7.53,1.03l-8.7 0 0 14.46 -14.73 0 0 -47.78z"/>
   <path class="fil1" d="M256.78 46.68c1.44,-0.25 2.87,-0.55 4.32,-0.75 6.94,-0.96 13.83,-0.75 20.58,1.3 9.97,3.04 17.64,9.12 23.2,17.87 5.37,8.46 7.83,17.77 7.56,27.78 -0.08,2.81 -0.39,5.62 -1.13,8.33 -1.07,0.33 -35.39,1.64 -37.04,1.4 0.24,-0.47 0.45,-0.91 0.68,-1.35 2.78,-5.31 4.94,-10.84 5.83,-16.8 1.67,-11.23 -1.52,-20.81 -9.88,-28.58 -3.62,-3.36 -7.78,-5.91 -12.25,-7.99 -0.62,-0.29 -1.24,-0.58 -1.87,-0.87 0.01,-0.12 0.01,-0.23 0.01,-0.34z"/>
   <path class="fil1" d="M201.01 87.82c5.93,-10.51 11.91,-21.11 17.99,-31.89 0.31,0.45 0.55,0.75 0.75,1.09 2.61,4.44 5.64,8.55 9.38,12.11 3.97,3.78 8.48,6.67 13.76,8.26 6.07,1.82 12.12,1.59 18.16,-0.17 5.06,-1.48 9.65,-3.9 13.96,-6.91 0.41,-0.28 0.82,-0.55 1.47,-0.68 -0.73,1.77 -1.41,3.56 -2.2,5.3 -3.23,7.08 -7.7,13.23 -13.92,17.99 -7.77,5.94 -16.59,8.74 -26.35,8.59 -12.17,-0.18 -22.83,-4.29 -31.92,-12.41 -0.31,-0.28 -0.6,-0.58 -0.89,-0.87 -0.06,-0.06 -0.08,-0.16 -0.19,-0.4z"/>
   <path class="fil1" d="M267.22 0c6.32,10.52 12.59,20.95 18.93,31.49 -0.75,0.34 -1.44,0.24 -2.1,0.26 -3.23,0.09 -6.46,0.33 -9.65,0.92 -5.74,1.06 -11.14,2.98 -15.91,6.44 -6.81,4.96 -10.62,11.78 -12.22,19.92 -0.88,4.47 -1.03,8.98 -0.65,13.52 0.04,0.49 0.06,0.98 -0.14,1.6 -0.35,-0.38 -0.73,-0.75 -1.06,-1.15 -4.88,-5.93 -8.54,-12.5 -10.31,-20.01 -2.56,-10.9 -0.84,-21.21 4.74,-30.84 5.75,-9.95 14.05,-17.01 24.86,-21.04 1.11,-0.41 2.27,-0.72 3.5,-1.11z"/>
  </g>
 </g>
</svg>
