<svg xmlns="http://www.w3.org/2000/svg" viewBox="0 0 127.86 127.86"><defs><style>.cls-1{fill:#876c3d;}</style></defs><g id="Layer_2" data-name="Layer 2"><g id="Layer_1-2" data-name="Layer 1"><path class="cls-1" d="M85.24,0H42.62a2.13,2.13,0,0,0-2.13,2.13V44.75a2.13,2.13,0,0,0,2.13,2.13H85.24a2.13,2.13,0,0,0,2.13-2.13V21.67a2.13,2.13,0,0,0-4.26,0V42.62H44.75V4.26H55.41V14.92a2.13,2.13,0,0,0,2.13,2.13H70.32a2.13,2.13,0,0,0,2.13-2.13V4.26H83.11v9.06a2.13,2.13,0,0,0,4.26,0V2.13A2.13,2.13,0,0,0,85.24,0Zm-17,12.79H59.67V4.26h8.52Z"/><path class="cls-1" d="M78.85,68.19h-6.4V57.54a2.13,2.13,0,0,0-4.26,0V70.32a2.13,2.13,0,0,0,2.13,2.13h3.84L63.93,84.13,53.7,72.45h3.84a2.13,2.13,0,0,0,2.13-2.13V57.54a2.13,2.13,0,0,0-4.26,0V68.19H49a2.13,2.13,0,0,0-1.6,3.54l14.92,17a2.14,2.14,0,0,0,3.2,0l14.91-17a2.13,2.13,0,0,0-1.59-3.54Z"/><path class="cls-1" d="M76.72,98H51.14A2.14,2.14,0,0,0,49,100.16v25.57a2.14,2.14,0,0,0,2.13,2.13H76.72a2.14,2.14,0,0,0,2.13-2.13V100.16A2.14,2.14,0,0,0,76.72,98ZM74.58,123.6H53.27V102.29h4.27v8.52a2.13,2.13,0,0,0,2.13,2.13h8.52a2.13,2.13,0,0,0,2.13-2.13v-2.13a2.13,2.13,0,1,0-4.26,0H61.8v-6.39H74.58Z"/><path class="cls-1" d="M125.73,91.63H100.16A2.14,2.14,0,0,0,98,93.76v25.57a2.14,2.14,0,0,0,2.14,2.14h25.57a2.14,2.14,0,0,0,2.13-2.14V93.76A2.14,2.14,0,0,0,125.73,91.63Zm-10.66,4.26v6.4h-4.26v-6.4Zm8.53,21.31H102.29V95.89h4.26v8.53a2.13,2.13,0,0,0,2.13,2.13h8.52a2.13,2.13,0,0,0,2.13-2.13V95.89h4.27Z"/><path class="cls-1" d="M109.89,80.15a2.36,2.36,0,0,0,.75-.13,2.11,2.11,0,0,0,1.26-1.24l8.18-21.12a2.14,2.14,0,0,0-2.73-2.77l-6,2.13L107.7,47a2.13,2.13,0,1,0-4,1.45l4.27,12a2.27,2.27,0,0,0,2.83,1.32l3.6-1.32L108.79,75l-13.6-7.5,3.6-1.3a2,2,0,0,0,1.2-2.73l-4.37-12a2.13,2.13,0,1,0-4,1.47l3.65,10-6,2.13a2.19,2.19,0,0,0-.3,4l19.84,10.93A2.12,2.12,0,0,0,109.89,80.15Z"/><path class="cls-1" d="M27.7,87.37H2.13A2.13,2.13,0,0,0,0,89.5v25.57a2.13,2.13,0,0,0,2.13,2.13H27.7a2.13,2.13,0,0,0,2.13-2.13V89.5A2.13,2.13,0,0,0,27.7,87.37ZM17.05,91.63V98H12.79V91.63Zm8.52,21.31H4.26V91.63H8.52v8.53a2.14,2.14,0,0,0,2.13,2.13h8.53a2.13,2.13,0,0,0,2.13-2.13V91.63h4.26Z"/><path class="cls-1" d="M34.59,54.94l-8.23,9.8a2.13,2.13,0,0,0-.49,1.55,2.05,2.05,0,0,0,.75,1.45l2.94,2.45L14.21,72.58l-.32-15.51,2.94,2.45a2.17,2.17,0,0,0,1.56.49,2.1,2.1,0,0,0,1.43-.75L28,49.46a2.12,2.12,0,0,0,.49-2.17,2.13,2.13,0,0,0-3.75-.56l-6.84,8.16L13,50.78a2.18,2.18,0,0,0-3.6,1.68L10,75.1a2.08,2.08,0,0,0,2.13,2.08h.32l22.37-3.47a2.13,2.13,0,0,0,1-3.73L31,65.87l6.87-8.16A2.13,2.13,0,1,0,34.59,55Z"/><path class="cls-1" d="M61.8,27.7a2.14,2.14,0,0,0-2.13-2.13H51.14a2.13,2.13,0,0,0,0,4.26h8.53A2.13,2.13,0,0,0,61.8,27.7Z"/><path class="cls-1" d="M51.14,34.1a2.13,2.13,0,1,0,0,4.26h6.4a2.13,2.13,0,1,0,0-4.26Z"/></g></g></svg>