<svg xmlns="http://www.w3.org/2000/svg" viewBox="0 0 127.86 105.34"><defs><style>.cls-1{fill:#fff;}</style></defs><g id="Layer_2" data-name="Layer 2"><g id="Layer_1-2" data-name="Layer 1"><path class="cls-1" d="M66.48,90.86a7.35,7.35,0,0,0,3.4-8.49c-.85-3.29-1.72-6.57-2.58-9.86h0a1.18,1.18,0,0,0,.44-.11C73.88,69.24,81,65.28,87.33,59.82a29.35,29.35,0,0,0,7.45-8.88c2.13-4.17,2.14-8.21.1-11.81a.67.67,0,0,0,.37.11h2.53c.06,0,.11,0,.16-.05s0,0-.07.05a.72.72,0,0,0-.19.53l0,.45a.71.71,0,0,0,.71.67h2.17a.69.69,0,0,0,.51-.22.69.69,0,0,0,.21-.51v-.44a.71.71,0,0,0-.71-.71h-2.2l-.15,0a.59.59,0,0,0,.21-.26.71.71,0,0,0-.19-.79,2.84,2.84,0,0,0-2-.93,2.28,2.28,0,0,0-1.56,1,.74.74,0,0,0-.12.54,12.17,12.17,0,0,0-.84-1.23,33,33,0,0,0-4.25-4.19l-1.16-1a2.76,2.76,0,0,0-1.42-.56l-.39-.08a.72.72,0,0,0-.73,1.17c.42.46.86.92,1.29,1.37.9,1,1.84,1.94,2.68,3,3.53,4.29,3.79,8.92.75,13.4a30.43,30.43,0,0,1-4.8,5.4C81,60.1,75.53,63.16,68.84,66.45l-2.77,1.36-1.4-5.31-.09-.34a5.44,5.44,0,0,0,3.14.83,5.31,5.31,0,0,0,4.67-3.09A5.48,5.48,0,0,0,72,54.46c-2.36-4.11-4.72-8.21-7.05-12.34a6.61,6.61,0,0,1-.67-1.73c-.9-3.73-2-8.15-2.92-12.61a5.83,5.83,0,0,0-4.52-4.71l-2.26-.6A11.44,11.44,0,0,0,51.55,0h-.07A11.49,11.49,0,0,0,40.1,11.51a11.33,11.33,0,0,0,3.33,8c-.68-.18-1.37-.36-2-.52a6.82,6.82,0,0,0-4.24.45c-2.72,1.24-5.41,2.6-8,3.93l-.85.43A5.46,5.46,0,0,0,25.93,32c1,1.64,2,3.26,3,4.88l.72,1.15a3.6,3.6,0,0,0,.59.72l.17.18c-.85,3.24-1.72,6.5-2.62,9.71a9.38,9.38,0,0,0,.28,6.3C30.48,61,32.81,67,35,72.8a2.39,2.39,0,0,1,.08,1.14c-.35,2.07-.72,4.14-1.09,6.2a.81.81,0,0,0-.22,0l-33.23,9a.75.75,0,0,0-.52.44.65.65,0,0,0,.1.63,1.07,1.07,0,0,0,.51.46l1,.4C4.35,92.19,7,93.26,9.73,94.3a2.51,2.51,0,0,0,.84.14,2.86,2.86,0,0,0,.82-.12q10.5-3.43,21-6.91l.38-.15q-.59,3.27-1.16,6.54a7.29,7.29,0,0,0,7.21,8.68,8.09,8.09,0,0,0,1.2-.1c3.2-.48,5.49-3,6.14-6.66l.91-5.18c.54-3.12,1.11-6.32,1.69-9.5l.05,0a.67.67,0,0,0,.28-.06l4.76-2c.61,2.32,1.22,4.63,1.85,7a9.38,9.38,0,0,0,2.09,3.75A7.14,7.14,0,0,0,66.48,90.86Zm-34.14-5a2.17,2.17,0,0,1-.4.19q-10.49,3.47-21,6.9a1.16,1.16,0,0,1-.69,0C7.78,92,5.31,91,2.86,90.05l30.22-8.22,0,.2C32.83,83.29,32.61,84.58,32.34,85.86ZM69.47,67.74c6.8-3.34,12.32-6.47,17.18-10.83a31.4,31.4,0,0,0,5-5.66c3.18-4.68,3.18-9.5,0-14,.32.34.63.69.91,1.05,2.84,3.59,3.15,7.63.91,12a28,28,0,0,1-7.11,8.46A97.16,97.16,0,0,1,67.53,70.9l-.52-2ZM51.5,4.3h0a7.18,7.18,0,0,1,7.15,7.13,7.15,7.15,0,0,1-7.12,7.16h0a7.13,7.13,0,0,1-5.06-2.06,7.05,7.05,0,0,1-2.09-5A7.17,7.17,0,0,1,51.5,4.3ZM48.76,67.61c-.26-.55-.49-1.1-.72-1.66l2.65,2.1a1.51,1.51,0,0,1,.44.65c.43,1.61.85,3.23,1.28,4.84h0l-.69.24c-.56.19-1.09.38-1.61.6l-.22.12A12.75,12.75,0,0,0,48.76,67.61Zm1,11.56v0c.19-1.16.36-2.24.55-3.2a1.17,1.17,0,0,1,.4-.25c.48-.21,1-.38,1.48-.56.12.42.24.81.34,1.21s.23.91.35,1.39l0,.1Zm11.21,7.58a4.83,4.83,0,0,1-1.09-2c-.86-3.12-1.68-6.25-2.5-9.38q-1-3.91-2.07-7.82a5.86,5.86,0,0,0-1.89-2.88c-2-1.64-4.12-3.24-6.31-4.93l-2.42-1.86a2.15,2.15,0,0,0-2.59,0,2.17,2.17,0,0,0-.74,2.49l.38,1,.64,1.72c.24.61.46,1.22.69,1.82.55,1.49,1.12,3,1.83,4.53a9.21,9.21,0,0,1,.55,6c-.93,4.78-1.77,9.65-2.59,14.35L41.93,95c-.23,1.3-.86,2.91-2.55,3.16a3.15,3.15,0,0,1-2.75-.84,3.11,3.11,0,0,1-.78-2.76q.76-4.4,1.55-8.8,1-5.53,1.94-11.07A6.68,6.68,0,0,0,39,71.27c-2.21-5.8-4.55-11.82-7-17.89a5.2,5.2,0,0,1-.14-3.55c1.44-5.09,2.78-10.29,4.09-15.31l.84-3.26a3.11,3.11,0,0,0-.19-2,2.15,2.15,0,0,0-1.56-1.55,2,2,0,0,0-.54-.07,2.3,2.3,0,0,0-1.62.69A3.16,3.16,0,0,0,31.83,30c-.23.79-.45,1.58-.67,2.38-.52-.84-1-1.68-1.54-2.53a1.73,1.73,0,0,1-.34-1.26,1.72,1.72,0,0,1,.95-.88l.84-.43c2.56-1.3,5.21-2.65,7.84-3.84a2.74,2.74,0,0,1,1.45-.2c3.22.8,6.5,1.67,9.66,2.51l5.75,1.52a1.62,1.62,0,0,1,1.4,1.47c1,4.5,2,8.94,2.94,12.7a10.89,10.89,0,0,0,1.11,2.83c2.33,4.14,4.7,8.26,7.07,12.37.5.88.35,1.18.25,1.39a1,1,0,0,1-1,.7c-.38,0-.75,0-1.17-.77l-1.9-3.32q-2.09-3.68-4.2-7.32l-.33-.56a17.72,17.72,0,0,1-2.6-6,2.15,2.15,0,0,0-4.2-.22l-.79,3c-.55,2.07-1.11,4.14-1.65,6.21-1,3.83-.71,4.7,2.49,7.17l2,1.51c1.28,1,2.55,2,3.84,3a4,4,0,0,1,1.53,2.25l2.1,8q1.56,6,3.11,11.89a3.05,3.05,0,0,1-1.36,3.68A2.85,2.85,0,0,1,60.94,86.75Zm.34-29.06q-1.76-1.35-3.5-2.71l-2-1.53c-.53-.41-1.08-.84-1.32-1.08.05-.33.22-1,.38-1.59.25-1,.51-2,.77-2.92l.6,1,.32.55q2.12,3.63,4.18,7.28Z"/><path class="cls-1" d="M125.15,49.17c-3.55-8.15-10-13.85-20.21-17.94a2.23,2.23,0,0,0-.93-.11h-.25a.7.7,0,0,0-.71.48.73.73,0,0,0,.27.82c1,.7,2,1.3,3,1.88.55.33,1.1.65,1.64,1a37.73,37.73,0,0,1,5.86,4.54,2.89,2.89,0,0,0-2.05-.82,2.22,2.22,0,0,0-1.46,1,.71.71,0,0,0,.58,1.13h2.58a.71.71,0,0,0,.67-.47.7.7,0,0,0-.18-.74,27.44,27.44,0,0,1,7.71,12.64c1.59,5.68,1.49,11.8-.31,18.71C119,80.25,114.6,89.1,107.85,98.38l-.74,1-.34.44a.74.74,0,0,0-.13.56.7.7,0,0,0,.33.47l.13.1a.94.94,0,0,0,.54.21l1.88.07c1.35,0,2.69.1,4,.19h.23a2.18,2.18,0,0,0,2-1.21C122.39,89,126.09,79,127.45,68.74,128.42,61.34,127.67,54.94,125.15,49.17ZM126,68.55c-1.32,10.07-5,19.91-11.46,30.94-.26.44-.43.54-.9.5-1.36-.09-2.72-.14-4.08-.19l-1,0,.4-.54c6.85-9.43,11.34-18.44,13.71-27.54,1.86-7.16,2-13.53.3-19.45a29.79,29.79,0,0,0-11.33-16.08,29.3,29.3,0,0,1,12.15,13.6C126.25,55.27,127,61.42,126,68.55Z"/><path class="cls-1" d="M76.91,90.47a10.49,10.49,0,0,0-3,1.15,2,2,0,0,0-1,1.86c.11.7,1,1.18,1.54,1.3a22.23,22.23,0,0,0,2.26.3l.9.1h.16l.89-.08c.8-.08,1.62-.16,2.42-.29,0,0,1.79-.41,1.66-1.41a2.77,2.77,0,0,0-.94-1.81A6.14,6.14,0,0,0,76.91,90.47Zm3.93,2.92c-.77.13-1.55.21-2.31.28l-.83.08-.84-.09c-.74-.08-1.45-.15-2.13-.29a1,1,0,0,1-.38-.19.85.85,0,0,1,.17-.29,9.31,9.31,0,0,1,2.63-1,4.76,4.76,0,0,1,3.77.84,1.22,1.22,0,0,1,.32.52A1.53,1.53,0,0,1,80.84,93.39Z"/><path class="cls-1" d="M64.07,93.58H64a5.89,5.89,0,0,0-4.39,1.54A1.57,1.57,0,0,0,60.52,98c.78.16,1.59.23,2.37.31l1,.11h.18l1-.11a23.81,23.81,0,0,0,2.44-.34,1.67,1.67,0,0,0,1.39-1,1.79,1.79,0,0,0-.53-1.74A5.78,5.78,0,0,0,64.07,93.58Zm3.19,2.94a21.73,21.73,0,0,1-2.29.31l-1,.11-1-.11a19.37,19.37,0,0,1-2.23-.29,3.65,3.65,0,0,1-.39-.11,1.31,1.31,0,0,1,.25-.36A4.92,4.92,0,0,1,64.05,95a4.6,4.6,0,0,1,3.28,1.08c.15.17.21.29.25.32A1.21,1.21,0,0,1,67.26,96.52Z"/><path class="cls-1" d="M90.53,98.36h.08c.31,0,.62-.06.93-.09.75-.07,1.46-.13,2.18-.27a3.13,3.13,0,0,0,1.17-.58l.35-.23a.74.74,0,0,0,.34-.45.69.69,0,0,0-.1-.56c-.08-.13-.15-.27-.22-.41a3,3,0,0,0-.89-1.16,6.58,6.58,0,0,0-5.31-.87,8,8,0,0,0-2.55,1.15,2.12,2.12,0,0,0-.86,1.8c.07.83,1.23,1.21,1.54,1.26.81.14,1.64.23,2.42.31l.84.1Zm-3.09-1.82a1.51,1.51,0,0,1-.33-.13.68.68,0,0,1,.17-.31,6.86,6.86,0,0,1,2.09-1,5.21,5.21,0,0,1,4.19.65,1.73,1.73,0,0,1,.37.55,1.42,1.42,0,0,1-.49.25,17.88,17.88,0,0,1-2,.25l-.88.08-.77-.08C89,96.76,88.22,96.68,87.44,96.54Z"/><path class="cls-1" d="M74.89,96.33h0A5.79,5.79,0,0,0,70.4,98a1.72,1.72,0,0,0-.46,1.7,1.62,1.62,0,0,0,1.32,1c.82.17,1.64.26,2.44.35l1,.11h.18l1-.11a23.38,23.38,0,0,0,2.46-.33,1.71,1.71,0,0,0,1.42-1,1.76,1.76,0,0,0-.5-1.73A5.78,5.78,0,0,0,74.89,96.33Zm3.24,2.94a20.41,20.41,0,0,1-2.31.32l-1,.1-1-.11a21.58,21.58,0,0,1-2.3-.33c-.13,0-.21-.06-.25-.06a1.39,1.39,0,0,1,.2-.32,4.59,4.59,0,0,1,3.34-1.1,4.58,4.58,0,0,1,3.38,1.08c.14.17.2.28.24.32A1.17,1.17,0,0,1,78.13,99.27Z"/><path class="cls-1" d="M95,100.54A6.12,6.12,0,0,0,90.58,102a1.8,1.8,0,0,0-.6,1.8,1.68,1.68,0,0,0,1.42,1.07,21.76,21.76,0,0,0,2.37.33l1,.11h.17l1-.11c.8-.08,1.63-.16,2.45-.32a1.75,1.75,0,0,0,1.46-1.05,1.85,1.85,0,0,0-.59-1.8A5.94,5.94,0,0,0,95,100.54Zm3.13,2.95c-.74.15-1.5.23-2.3.31l-1,.1-.93-.1a21.2,21.2,0,0,1-2.22-.31c-.19,0-.29-.09-.33-.09h0a.87.87,0,0,1,.26-.41A4.58,4.58,0,0,1,95,102a4.62,4.62,0,0,1,3.23,1,4.26,4.26,0,0,1,.28.36A1.16,1.16,0,0,1,98.14,103.49Z"/><path class="cls-1" d="M52.67,91.05a5.86,5.86,0,0,0-4.36,1.55,1.75,1.75,0,0,0-.51,1.74,1.67,1.67,0,0,0,1.37,1c.79.17,1.59.26,2.36.35.33,0,.66.07,1,.12h.18l1-.11c.8-.08,1.64-.17,2.45-.33a1.75,1.75,0,0,0,1.49-1.07,1.78,1.78,0,0,0-.55-1.77A6,6,0,0,0,52.67,91.05Zm3.24,3c-.75.15-1.51.23-2.32.31l-1,.1-.93-.1A21.73,21.73,0,0,1,49.48,94c-.16,0-.26-.08-.3-.08h0a1,1,0,0,1,.23-.38,4.63,4.63,0,0,1,3.28-1,4.85,4.85,0,0,1,3.38,1c.18.21.25.33.27.33A.86.86,0,0,1,55.91,94Z"/><path class="cls-1" d="M54.36,99a6.22,6.22,0,0,0-5-1,10.56,10.56,0,0,0-2.91,1.18,2.06,2.06,0,0,0-.87,1.83c.07.82,1.22,1.2,1.52,1.25.76.14,1.54.23,2.31.32l.89.1h.17l.94-.09c.76-.07,1.55-.14,2.32-.28.28-.06,1.78-.55,1.7-1.47A2.72,2.72,0,0,0,54.36,99Zm-.92,1.88c-.71.13-1.43.2-2.19.27l-.89.08-.82-.1c-.74-.08-1.48-.16-2.21-.3a1.13,1.13,0,0,1-.33-.13,1,1,0,0,1,.12-.29,9,9,0,0,1,2.49-1,4.83,4.83,0,0,1,3.91.77,1.38,1.38,0,0,1,.38.52A2.47,2.47,0,0,1,53.44,100.85Z"/><path class="cls-1" d="M28.24,94.89a7.89,7.89,0,0,0-2.57-1.15A6.49,6.49,0,0,0,20,94.87a2.2,2.2,0,0,0-.85,1.81c.13.69,1,1.17,1.58,1.28.78.14,1.57.22,2.33.3l1,.1h.16l.91-.1c.8-.08,1.61-.17,2.41-.31.3,0,1.46-.42,1.54-1.24A2.13,2.13,0,0,0,28.24,94.89Zm-.95,1.65c-.77.14-1.54.22-2.31.3l-.84.09-.89-.1c-.77-.07-1.5-.15-2.21-.28a1.27,1.27,0,0,1-.39-.18,1.17,1.17,0,0,1,.29-.39,5.07,5.07,0,0,1,4.45-.84,6.68,6.68,0,0,1,2.07,1,.68.68,0,0,1,.17.31A1,1,0,0,1,27.29,96.54Z"/><path class="cls-1" d="M88.42,89.78h.15l.75-.08c.66-.07,1.33-.14,2-.26.3,0,1.42-.42,1.46-1.22a1.9,1.9,0,0,0-1-1.72l-.32-.12a10.11,10.11,0,0,0-3.28-.84,6.56,6.56,0,0,0-2.74.78l-.34.15a1.89,1.89,0,0,0-1,1.76c.12.73,1.06,1.14,1.5,1.22a19.67,19.67,0,0,0,2,.25Zm-2.81-1.85a.69.69,0,0,1,.09-.15l.35-.16a4.83,4.83,0,0,1,2.1-.65,9.48,9.48,0,0,1,2.81.75l.22.06a.65.65,0,0,1,.09.17.85.85,0,0,1-.22.08c-.62.11-1.25.18-1.87.24l-.69.07-.73-.07c-.63,0-1.25-.11-1.86-.22A1.38,1.38,0,0,1,85.61,87.93Z"/><path class="cls-1" d="M84.34,82.34h.09l.84-.1a16.21,16.21,0,0,0,2-.28,1.59,1.59,0,0,0,1.32-1,1.68,1.68,0,0,0-.6-1.66,6.19,6.19,0,0,0-7.45,0A1.63,1.63,0,0,0,80,81a1.6,1.6,0,0,0,1.36,1,18,18,0,0,0,2,.28c.28,0,.57,0,.85.09Zm-2.67-1.77a.79.79,0,0,1-.23-.07,1.73,1.73,0,0,1,.17-.21,3.89,3.89,0,0,1,2.63-.81h.06a4,4,0,0,1,2.69.8,2.35,2.35,0,0,1,.19.22l-.19.06a17.92,17.92,0,0,1-1.87.26l-.78.08-.81-.08A15.45,15.45,0,0,1,81.67,80.57Z"/><path class="cls-1" d="M105.19,87.57c.68.13,1.38.22,2.08.3l.9.12h.19l.9-.12c.74-.08,1.47-.17,2.19-.31a1.38,1.38,0,0,0,1.13-.81,1.51,1.51,0,0,0-.29-1.49,4.8,4.8,0,0,0-3.85-1.56c-1.37,0-3.21.34-4.06,1.46a1.59,1.59,0,0,0-.37,1.56A1.43,1.43,0,0,0,105.19,87.57Zm.33-1.54a4,4,0,0,1,2.89-.9,3.6,3.6,0,0,1,2.7,1,.35.35,0,0,1,0,.08c-.68.12-1.38.21-2.07.29l-.83.1-.81-.1c-.67-.08-1.34-.16-2-.29h0Z"/><path class="cls-1" d="M101.36,88.81h-.11a5.19,5.19,0,0,0-3.76,1.28,1.46,1.46,0,0,0,.85,2.65c.63.13,1.27.19,1.93.26l.86.1h.18c.28,0,.57-.07.86-.09.69-.07,1.39-.15,2.09-.29a1.54,1.54,0,0,0,1.3-1,1.61,1.61,0,0,0-.49-1.62A5.05,5.05,0,0,0,101.36,88.81Zm2.61,2.5c-.63.13-1.3.2-1.94.27l-.81.09-.8-.09c-.61-.07-1.21-.13-1.79-.25a1,1,0,0,1-.25-.07,2,2,0,0,1,.17-.2,4,4,0,0,1,2.79-.81,3.81,3.81,0,0,1,2.65.83,1.49,1.49,0,0,1,.15.19A.61.61,0,0,1,104,91.31Z"/><path class="cls-1" d="M94.54,84.31c.67.14,1.36.21,2,.28l.86.1h.18l.89-.1c.7-.08,1.4-.16,2.08-.29a1.49,1.49,0,0,0,1.25-.91,1.56,1.56,0,0,0-.4-1.58A4.9,4.9,0,0,0,97.7,80.4a5,5,0,0,0-4,1.32,1.62,1.62,0,0,0-.48,1.62A1.55,1.55,0,0,0,94.54,84.31Zm.27-1.65a4,4,0,0,1,2.86-.82,3.72,3.72,0,0,1,2.63.86,1.1,1.1,0,0,1,.12.17l-.12,0c-.65.13-1.3.2-2,.27l-.83.1c-.27,0-.53-.07-.8-.09a17.89,17.89,0,0,1-1.87-.27l-.17,0A1.25,1.25,0,0,1,94.81,82.66Z"/><path class="cls-1" d="M71.92,86.35c.69.13,1.39.21,2.1.29l.88.11h.19l.87-.1c.69-.09,1.39-.17,2.08-.31a1.43,1.43,0,0,0,1.17-.85,1.61,1.61,0,0,0-.36-1.56A4.87,4.87,0,0,0,75,82.46c-1.77,0-3.24.51-4,1.41a1.6,1.6,0,0,0-.4,1.6A1.47,1.47,0,0,0,71.92,86.35Zm.26-1.59A3.81,3.81,0,0,1,75,83.89a3.64,3.64,0,0,1,2.71.9.77.77,0,0,1,.09.13h0c-.65.12-1.31.2-2,.28l-.8.1-.81-.09c-.68-.08-1.35-.16-2-.28l-.1,0A1.59,1.59,0,0,1,72.18,84.76Z"/><path class="cls-1" d="M120.36,71.22a1.28,1.28,0,0,0,1.09-.84A1.41,1.41,0,0,0,121,69a4.51,4.51,0,0,0-5.55,0,1.38,1.38,0,0,0-.41,1.39,1.35,1.35,0,0,0,1.14.83c.46.08.92.14,1.39.2l.62.08h.19l.59-.08C119.42,71.38,119.9,71.32,120.36,71.22Zm-2.1-1.14-.53-.06-1.11-.16a2.94,2.94,0,0,1,1.55-.38,3.12,3.12,0,0,1,1.66.38c-.35.07-.7.11-1.06.16Z"/><path class="cls-1" d="M95.36,78.28a6.54,6.54,0,0,0,2.89.64,6.13,6.13,0,0,0,3-.72.72.72,0,0,0,.3-.93A3.35,3.35,0,0,0,98,75.51c-.89,0-2.54.14-3,1.95A.71.71,0,0,0,95.36,78.28Zm2.73-1.34a2.45,2.45,0,0,1,1.69.33,5.75,5.75,0,0,1-3.08,0A2.51,2.51,0,0,1,98.09,76.94Z"/><path class="cls-1" d="M115.39,76.41a7.46,7.46,0,0,0,2.83-.55.71.71,0,0,0,.36-1A4.09,4.09,0,0,0,115.24,73a3.14,3.14,0,0,0-2.82,1.1,1.51,1.51,0,0,0,0,1.33.94.94,0,0,0,.64.67A9.75,9.75,0,0,0,115.39,76.41Zm-.24-2a3.28,3.28,0,0,1,1.46.43,6.92,6.92,0,0,1-2.89-.07A2.14,2.14,0,0,1,115.15,74.42Z"/><path class="cls-1" d="M95.08,70.92a.73.73,0,0,0,.44-.86,2.67,2.67,0,0,0-2.63-2,3.79,3.79,0,0,0-3.58,1.06,1.18,1.18,0,0,0-.11,1.18,1,1,0,0,0,.7.81,9.71,9.71,0,0,0,2.39.32A7.55,7.55,0,0,0,95.08,70.92Zm-4.43-1.09a2.76,2.76,0,0,1,2.09-.34,1.87,1.87,0,0,1,1.05.34A6.79,6.79,0,0,1,90.65,69.83Z"/><path class="cls-1" d="M104,68.48a1.1,1.1,0,0,0,.71-.74,1.41,1.41,0,0,0,0-1.22,3.15,3.15,0,0,0-2.87-1.17,4,4,0,0,0-3.34,2,.73.73,0,0,0,.4,1,8.31,8.31,0,0,0,2.79.48A9.53,9.53,0,0,0,104,68.48Zm-2.08-1.7a2,2,0,0,1,1.44.38,7.36,7.36,0,0,1-2.91.08A3.2,3.2,0,0,1,101.92,66.78Z"/><path class="cls-1" d="M84.28,75.84a7.31,7.31,0,0,0,2.79.53,10.44,10.44,0,0,0,2.31-.29,1,1,0,0,0,.69-.7,1.48,1.48,0,0,0,0-1.29A3.1,3.1,0,0,0,87.16,73a3.84,3.84,0,0,0-3.25,1.9.71.71,0,0,0,0,.57A.71.71,0,0,0,84.28,75.84Zm3-1.44a2.08,2.08,0,0,1,1.5.35,7.21,7.21,0,0,1-2.91.07A3.11,3.11,0,0,1,87.26,74.4Z"/><path class="cls-1" d="M80.72,72.56a1.36,1.36,0,0,0-.43-1.4,3.83,3.83,0,0,0-2.77-.93h0a3.76,3.76,0,0,0-2.76.94,1.4,1.4,0,0,0-.42,1.4,1.31,1.31,0,0,0,1.09.84,13.66,13.66,0,0,0,1.43.2l.59.07h.18l.59-.07a13.3,13.3,0,0,0,1.43-.2A1.3,1.3,0,0,0,80.72,72.56Zm-2.66-.38-.54.06-.53,0c-.37,0-.73-.08-1.09-.14a2.83,2.83,0,0,1,1.61-.39h0a3,3,0,0,1,1.62.38A10,10,0,0,1,78.06,72.18Z"/><path class="cls-1" d="M104.68,73.33h2a.72.72,0,0,0,.69-.9,2.77,2.77,0,0,0-3.06-2.26,6.87,6.87,0,0,0-2.11.57c-.26.1-.52.21-.78.29a.71.71,0,0,0-.44.39.73.73,0,0,0,0,.58c0,.08.07.18.1.28.15.44.33,1,.92,1C102.91,73.32,103.78,73.33,104.68,73.33Zm-.24-1.74a1.4,1.4,0,0,1,1.12.3c-.8,0-1.56,0-2.32,0A4.36,4.36,0,0,1,104.44,71.59Z"/><path class="cls-1" d="M75.38,78a.71.71,0,0,0,.42-.94,3.1,3.1,0,0,0-3.33-1.93,3.07,3.07,0,0,0-3.31,2,.73.73,0,0,0,0,.56.76.76,0,0,0,.42.37,9,9,0,0,0,2.88.5A8.52,8.52,0,0,0,75.38,78Zm-2.9-1.43A2.38,2.38,0,0,1,74,77a6.81,6.81,0,0,1-3.08,0A2.27,2.27,0,0,1,72.48,76.61Z"/><path class="cls-1" d="M87,67.37a6.58,6.58,0,0,0,3-.65.73.73,0,0,0,.3-1c-1-1.9-2.72-1.79-3.77-1.74a2.73,2.73,0,0,0-2.82,1.9.72.72,0,0,0,.36.83A6.36,6.36,0,0,0,87,67.37Zm-.37-1.92a2.81,2.81,0,0,1,1.89.31,6.46,6.46,0,0,1-3.06,0A2.21,2.21,0,0,1,86.64,65.45Z"/><path class="cls-1" d="M108.4,77.89a3.05,3.05,0,0,0-3.27,1.83.72.72,0,0,0,.3.85,6.53,6.53,0,0,0,6,0,.73.73,0,0,0,.28-.88A3.17,3.17,0,0,0,108.4,77.89Zm-1.54,1.75a3.87,3.87,0,0,1,3.08,0A6,6,0,0,1,106.86,79.64Z"/><path class="cls-1" d="M91.48,57.62a.73.73,0,0,0,.08.66.74.74,0,0,0,.59.31h4.27a.76.76,0,0,0,.53-.23.7.7,0,0,0,.18-.55c-.17-1.87-1.67-2-2.44-2.05A2.79,2.79,0,0,0,91.48,57.62Z"/><path class="cls-1" d="M106.29,61.67a.73.73,0,0,0,0-.58,2.88,2.88,0,0,0-2.3-1.65,3.68,3.68,0,0,0-3.26,1.49.72.72,0,0,0-.12.65.7.7,0,0,0,.46.47,7.73,7.73,0,0,0,2.51.44,6.6,6.6,0,0,0,2.31-.42A.7.7,0,0,0,106.29,61.67ZM102.87,61a2.08,2.08,0,0,1,.95-.14,1.56,1.56,0,0,1,.48.14A4.89,4.89,0,0,1,102.87,61Z"/><path class="cls-1" d="M121.68,59.68c-.47-1.18-.91-1.73-2.32-1.8A3.08,3.08,0,0,0,116,59.63a.71.71,0,0,0,0,.69.72.72,0,0,0,.61.34H121a.75.75,0,0,0,.6-.31A.73.73,0,0,0,121.68,59.68Z"/><path class="cls-1" d="M113.56,59.12a.73.73,0,0,0,0-.7,3,3,0,0,0-3.27-1.76,2.39,2.39,0,0,0-2.5,1.9.72.72,0,0,0,.13.62.73.73,0,0,0,.56.28H113A.72.72,0,0,0,113.56,59.12Z"/><path class="cls-1" d="M99.4,63.24a.73.73,0,0,0,0-.58,2.81,2.81,0,0,0-2.87-1.59,2.72,2.72,0,0,0-2.82,1.65.67.67,0,0,0,0,.57.73.73,0,0,0,.41.38,7.4,7.4,0,0,0,2.43.44A6.86,6.86,0,0,0,99,63.64.72.72,0,0,0,99.4,63.24Zm-3.73-.64a3.24,3.24,0,0,1,.85-.1,2.94,2.94,0,0,1,.86.1A5.17,5.17,0,0,1,95.67,62.6Z"/><path class="cls-1" d="M112.51,64.65a.74.74,0,0,0-.11-.6,3.28,3.28,0,0,0-5.59.2.77.77,0,0,0,0,.69.85.85,0,0,0,.6.42,14.57,14.57,0,0,0,2.34.26,5.3,5.3,0,0,0,2.34-.51A.74.74,0,0,0,112.51,64.65ZM109,64.14a1.74,1.74,0,0,1,.6-.13,1.89,1.89,0,0,1,.73.14A5.93,5.93,0,0,1,109,64.14Z"/><path class="cls-1" d="M114.19,65.39h4.45a.72.72,0,0,0,.61-.34.71.71,0,0,0,0-.69A3,3,0,0,0,116,62.6a2.45,2.45,0,0,0-2.53,1.88.71.71,0,0,0,.12.63A.72.72,0,0,0,114.19,65.39Z"/><path class="cls-1" d="M104.66,47.59A2.76,2.76,0,0,0,102.37,49a.74.74,0,0,0,0,.72.72.72,0,0,0,.63.37h3.53a.72.72,0,0,0,.6-1.12A3,3,0,0,0,104.66,47.59Z"/><path class="cls-1" d="M96.35,53.87a.71.71,0,0,0,.64.39h3.69a.71.71,0,0,0,.65-.41.72.72,0,0,0-.1-.77,3,3,0,0,0-2.51-1.31,3,3,0,0,0-2.3,1.35A.72.72,0,0,0,96.35,53.87Z"/><path class="cls-1" d="M114.13,50.2l-.48-.2a3.69,3.69,0,0,0-1.51-.43,3.77,3.77,0,0,0-1.51.42l-.48.2a.71.71,0,0,0-.44.9l.17.53a.71.71,0,0,0,.68.49h3.18a.7.7,0,0,0,.69-.52l.15-.53A.73.73,0,0,0,114.13,50.2Z"/><path class="cls-1" d="M96.82,49.12a.71.71,0,0,0,.64.39H101a.74.74,0,0,0,.64-.38.71.71,0,0,0-.05-.74A2.86,2.86,0,0,0,99.3,47h0a3,3,0,0,0-2.39,1.38A.72.72,0,0,0,96.82,49.12Z"/><path class="cls-1" d="M108.2,46.82a.73.73,0,0,0,0,.7.72.72,0,0,0,.61.34h3.59a.72.72,0,0,0,.64-.41.71.71,0,0,0-.09-.76,3.26,3.26,0,0,0-2.77-1.37A2.57,2.57,0,0,0,108.2,46.82Z"/><path class="cls-1" d="M118.4,53.15a2.73,2.73,0,0,0-2.17,1.4.71.71,0,0,0,0,.72.72.72,0,0,0,.63.37h3.52a.71.71,0,0,0,.57-1.15A3,3,0,0,0,118.4,53.15Z"/><path class="cls-1" d="M107.29,52.68A3.22,3.22,0,0,0,104.78,54a.72.72,0,0,0-.12.77.73.73,0,0,0,.66.42H109a.72.72,0,0,0,.65-.41.7.7,0,0,0-.09-.76A3.05,3.05,0,0,0,107.29,52.68Z"/><path class="cls-1" d="M116.89,46.3a2.57,2.57,0,0,0-2,1.51.73.73,0,0,0,0,.69.72.72,0,0,0,.61.34h3.58a.72.72,0,0,0,.56-1.17A3.23,3.23,0,0,0,116.89,46.3Z"/><path class="cls-1" d="M101,58.57h3.54a.71.71,0,0,0,.65-.4.72.72,0,0,0-.09-.76,3.07,3.07,0,0,0-2.61-1.31,2.67,2.67,0,0,0-2.11,1.4.71.71,0,0,0,.62,1.07Z"/><path class="cls-1" d="M98.77,42.55h0a2.65,2.65,0,0,0-1.79,1,.72.72,0,0,0-.14.77.71.71,0,0,0,.66.44h2.58a.71.71,0,0,0,.66-.44.73.73,0,0,0-.15-.78A2.7,2.7,0,0,0,98.77,42.55Z"/><path class="cls-1" d="M108.61,40.56h0a2.62,2.62,0,0,0-1.8,1,.71.71,0,0,0,.51,1.21h2.59a.71.71,0,0,0,.66-.44.73.73,0,0,0-.15-.78A2.69,2.69,0,0,0,108.61,40.56Z"/><path class="cls-1" d="M103.32,43.72a.73.73,0,0,0-.16.79.71.71,0,0,0,.66.44h2.57a.71.71,0,0,0,.66-.43.73.73,0,0,0-.14-.78,2.6,2.6,0,0,0-1.75-1A3,3,0,0,0,103.32,43.72Z"/><path class="cls-1" d="M102.3,41.33h2.2a.72.72,0,0,0,.72-.72v-.46a.72.72,0,0,0-.72-.72h-2.23a.68.68,0,0,0-.52.23.69.69,0,0,0-.2.53l0,.46A.72.72,0,0,0,102.3,41.33Z"/><path class="cls-1" d="M107.34,37.57a2.47,2.47,0,0,0-1.64,1,.74.74,0,0,0-.11.77.72.72,0,0,0,.65.41h2.62a.71.71,0,0,0,.67-.46.73.73,0,0,0-.19-.79A2.85,2.85,0,0,0,107.34,37.57Z"/><path class="cls-1" d="M113.44,42.8a2.28,2.28,0,0,0-1.63,1,.71.71,0,0,0-.09.75.72.72,0,0,0,.65.41H115a.71.71,0,0,0,.49-1.24A2.73,2.73,0,0,0,113.44,42.8Z"/><path class="cls-1" d="M102.07,44.75a2,2,0,0,0-1.55,1,.73.73,0,0,0,.58,1.15h2.16a.73.73,0,0,0,.65-.42.74.74,0,0,0-.11-.77A2.11,2.11,0,0,0,102.07,44.75Z"/></g></g></svg>